<svg width="30" height="30" viewBox="0 0 30 30" fill="none" xmlns="http://www.w3.org/2000/svg">
<path d="M7.96875 17.8125H7.03125V16.4062C7.03125 16.2819 6.98186 16.1627 6.89396 16.0748C6.80605 15.9869 6.68682 15.9375 6.5625 15.9375H5.15625V13.5938H7.03125C7.1025 13.5937 7.17282 13.5775 7.23685 13.5462C7.30088 13.515 7.35695 13.4696 7.40078 13.4134C7.44462 13.3572 7.47507 13.2918 7.48983 13.2221C7.50458 13.1524 7.50325 13.0802 7.48594 13.0111L6.54844 9.26109C6.52304 9.15973 6.46451 9.06975 6.38213 9.00546C6.29975 8.94117 6.19825 8.90625 6.09375 8.90625H3.28125C3.17675 8.90625 3.07525 8.94117 2.99287 9.00546C2.91049 9.06975 2.85196 9.15973 2.82656 9.26109L1.88906 13.0111C1.87175 13.0802 1.87042 13.1524 1.88517 13.2221C1.89993 13.2918 1.93038 13.3572 1.97422 13.4134C2.01805 13.4696 2.07412 13.515 2.13815 13.5462C2.20218 13.5775 2.2725 13.5937 2.34375 13.5938H4.21875V15.9375H2.8125C2.68818 15.9375 2.56895 15.9869 2.48104 16.0748C2.39314 16.1627 2.34375 16.2819 2.34375 16.4062V17.8125H1.40625C1.28193 17.8125 1.1627 17.8619 1.07479 17.9498C0.986886 18.0377 0.9375 18.1569 0.9375 18.2812V20.1562C0.9375 20.2806 0.986886 20.3998 1.07479 20.4877C1.1627 20.5756 1.28193 20.625 1.40625 20.625V28.5938C1.40625 28.7181 1.45564 28.8373 1.54354 28.9252C1.63145 29.0131 1.75068 29.0625 1.875 29.0625H3.75C3.87432 29.0625 3.99355 29.0131 4.08146 28.9252C4.16936 28.8373 4.21875 28.7181 4.21875 28.5938V27.1875H5.15625V28.5938C5.15625 28.7181 5.20564 28.8373 5.29354 28.9252C5.38145 29.0131 5.50068 29.0625 5.625 29.0625H7.5C7.62432 29.0625 7.74355 29.0131 7.83146 28.9252C7.91936 28.8373 7.96875 28.7181 7.96875 28.5938V20.625C8.09307 20.625 8.2123 20.5756 8.30021 20.4877C8.38811 20.3998 8.4375 20.2806 8.4375 20.1562V18.2812C8.4375 18.1569 8.38811 18.0377 8.30021 17.9498C8.2123 17.8619 8.09307 17.8125 7.96875 17.8125ZM3.64734 9.84375H5.72766L6.43078 12.6562H2.94422L3.64734 9.84375ZM3.28125 16.875H6.09375V17.8125H3.28125V16.875ZM1.875 18.75H7.5V19.6875H1.875V18.75ZM2.34375 25.3125H7.03125V26.25H2.34375V25.3125ZM3.28125 28.125H2.34375V27.1875H3.28125V28.125ZM6.09375 28.125V27.1875H7.03125V28.125H6.09375ZM7.03125 24.375H2.34375V20.625H7.03125V24.375Z" fill="black"/>
<path d="M6.09375 21.5625H5.15625V22.5H6.09375V21.5625Z" fill="black"/>
<path d="M11.7188 7.5H26.7188C26.8431 7.5 26.9623 7.45061 27.0502 7.36271C27.1381 7.2748 27.1875 7.15557 27.1875 7.03125V1.40625C27.1875 1.28193 27.1381 1.1627 27.0502 1.07479C26.9623 0.986886 26.8431 0.9375 26.7188 0.9375H11.7188C11.5944 0.9375 11.4752 0.986886 11.3873 1.07479C11.2994 1.1627 11.25 1.28193 11.25 1.40625V7.03125C11.25 7.15557 11.2994 7.2748 11.3873 7.36271C11.4752 7.45061 11.5944 7.5 11.7188 7.5ZM12.1875 1.875H26.25V6.5625H12.1875V1.875Z" fill="black"/>
<path d="M24.8438 2.8125H13.5938C13.4694 2.8125 13.3502 2.86189 13.2623 2.94979C13.1744 3.0377 13.125 3.15693 13.125 3.28125V5.15625C13.125 5.28057 13.1744 5.3998 13.2623 5.48771C13.3502 5.57561 13.4694 5.625 13.5938 5.625H24.8438C24.9681 5.625 25.0873 5.57561 25.1752 5.48771C25.2631 5.3998 25.3125 5.28057 25.3125 5.15625V3.28125C25.3125 3.15693 25.2631 3.0377 25.1752 2.94979C25.0873 2.86189 24.9681 2.8125 24.8438 2.8125ZM24.375 4.6875H14.0625V3.75H24.375V4.6875Z" fill="black"/>
<path d="M28.125 17.8987V10.7812C28.125 10.4083 27.9768 10.0506 27.7131 9.78688C27.4494 9.52316 27.0917 9.375 26.7188 9.375H11.7188C11.3458 9.375 10.9881 9.52316 10.7244 9.78688C10.4607 10.0506 10.3125 10.4083 10.3125 10.7812V17.8987C10.0393 17.9954 9.80254 18.174 9.63473 18.4103C9.46691 18.6466 9.3762 18.9289 9.375 19.2188V28.5938C9.375 28.7181 9.42439 28.8373 9.51229 28.9252C9.6002 29.0131 9.71943 29.0625 9.84375 29.0625H11.7188C11.8431 29.0625 11.9623 29.0131 12.0502 28.9252C12.1381 28.8373 12.1875 28.7181 12.1875 28.5938V26.25H26.25V28.5938C26.25 28.7181 26.2994 28.8373 26.3873 28.9252C26.4752 29.0131 26.5944 29.0625 26.7188 29.0625H28.5938C28.7181 29.0625 28.8373 29.0131 28.9252 28.9252C29.0131 28.8373 29.0625 28.7181 29.0625 28.5938V19.2188C29.0613 18.9289 28.9706 18.6466 28.8028 18.4103C28.635 18.174 28.3982 17.9954 28.125 17.8987ZM10.3125 23.4375H28.125V25.3125H10.3125V23.4375ZM11.7188 10.3125H26.7188C26.8431 10.3125 26.9623 10.3619 27.0502 10.4498C27.1381 10.5377 27.1875 10.6569 27.1875 10.7812V17.8125H26.25V15.4688C26.25 15.0958 26.1018 14.7381 25.8381 14.4744C25.5744 14.2107 25.2167 14.0625 24.8438 14.0625H21.0938C20.7208 14.0625 20.3631 14.2107 20.0994 14.4744C19.8357 14.7381 19.6875 15.0958 19.6875 15.4688V17.8125H18.75V15.4688C18.75 15.0958 18.6018 14.7381 18.3381 14.4744C18.0744 14.2107 17.7167 14.0625 17.3438 14.0625H13.5938C13.2208 14.0625 12.8631 14.2107 12.5994 14.4744C12.3357 14.7381 12.1875 15.0958 12.1875 15.4688V17.8125H11.25V10.7812C11.25 10.6569 11.2994 10.5377 11.3873 10.4498C11.4752 10.3619 11.5944 10.3125 11.7188 10.3125ZM25.3125 17.8125H20.625V15.4688C20.625 15.3444 20.6744 15.2252 20.7623 15.1373C20.8502 15.0494 20.9694 15 21.0938 15H24.8438C24.9681 15 25.0873 15.0494 25.1752 15.1373C25.2631 15.2252 25.3125 15.3444 25.3125 15.4688V17.8125ZM17.8125 17.8125H13.125V15.4688C13.125 15.3444 13.1744 15.2252 13.2623 15.1373C13.3502 15.0494 13.4694 15 13.5938 15H17.3438C17.4681 15 17.5873 15.0494 17.6752 15.1373C17.7631 15.2252 17.8125 15.3444 17.8125 15.4688V17.8125ZM10.7812 18.75H27.6562C27.7806 18.75 27.8998 18.7994 27.9877 18.8873C28.0756 18.9752 28.125 19.0944 28.125 19.2188V22.5H10.3125V19.2188C10.3125 19.0944 10.3619 18.9752 10.4498 18.8873C10.5377 18.7994 10.6569 18.75 10.7812 18.75ZM11.25 28.125H10.3125V26.25H11.25V28.125ZM27.1875 28.125V26.25H28.125V28.125H27.1875Z" fill="black"/>
</svg>
