<svg width="45" height="49" viewBox="0 0 45 49" fill="none" xmlns="http://www.w3.org/2000/svg">
<path d="M4.21798 42.5709C6.73098 45.0838 10.6067 45.3735 13.4356 43.5024L18.5038 48.5706C19.0757 49.1425 20.0032 49.1427 20.5753 48.5706L24.7185 44.4274C25.2902 43.8557 25.2904 42.9279 24.7185 42.3559L19.7661 37.4036C29.6483 28.0476 39.8241 27.3975 42.9943 26.2862C43.5063 26.1582 43.9098 25.7648 44.0506 25.2562C44.1916 24.7476 44.0479 24.2026 43.6748 23.8294L20.8879 1.04255C20.5149 0.669421 19.97 0.525871 19.4612 0.666686C18.9526 0.8076 18.5592 1.2111 18.4312 1.7231C17.3548 4.73188 16.6392 15.6489 6.54271 25.7454C5.85699 26.4312 2.56774 29.7204 2.14646 30.1417C-0.715745 33.0038 -0.716233 37.6367 2.14646 40.4994L4.21798 42.5709ZM19.5396 45.4633L15.6114 41.5352L17.683 39.4636L21.6112 43.3919L19.5396 45.4633ZM9.38577 27.0233C13.6469 22.5392 16.8768 17.2223 18.8608 11.4446L33.2727 25.8566C27.4949 27.8406 22.178 31.0705 17.694 35.3316L9.38577 27.0233ZM20.6458 4.9434L39.7739 24.0716C37.7595 24.5763 37.1094 24.7356 36.4614 24.9022L19.8151 8.25598C19.9728 7.64272 20.2798 6.40351 20.6458 4.9434ZM4.21798 32.2132L7.3253 29.1059L15.6114 37.392L12.5041 40.4994C10.7908 42.2127 8.00291 42.2128 6.28949 40.4994L4.21798 38.4278C2.50075 36.7106 2.50036 33.9307 4.21798 32.2132Z" fill="url(#paint0_linear)"/>
<defs>
<linearGradient id="paint0_linear" x1="22.0517" y1="0.613525" x2="22.0517" y2="48.9996" gradientUnits="userSpaceOnUse">
<stop stop-color="#F7C340"/>
<stop offset="1" stop-color="#EFB111"/>
</linearGradient>
</defs>
</svg>
