<svg width="50" height="50" viewBox="0 0 50 50" fill="none" xmlns="http://www.w3.org/2000/svg">
<g clip-path="url(#clip0)">
<path d="M25.8766 22.7558H28.1555V24.6116C28.1555 25.0065 28.3936 25.3628 28.7582 25.5138C28.8792 25.5638 29.0062 25.5882 29.1321 25.5882C29.3861 25.5882 29.636 25.489 29.8225 25.3021L32.3689 22.7558H45.0191C47.7654 22.7558 50 20.5215 50 17.7749V7.03161C50 4.28503 47.7654 2.05076 45.0191 2.05076H25.8766C23.13 2.05076 20.8954 4.28503 20.8954 7.03161V17.7749C20.8954 20.5215 23.13 22.7558 25.8766 22.7558ZM22.8489 7.03161C22.8489 5.3623 24.2069 4.00388 25.8766 4.00388H45.0191C46.6885 4.00388 48.0465 5.3623 48.0465 7.03161V17.7749C48.0465 19.4443 46.6885 20.8027 45.0191 20.8027H31.9645C31.7055 20.8027 31.4571 20.9057 31.2737 21.0888L30.1086 22.2538V21.7792C30.1086 21.2398 29.6715 20.8027 29.1321 20.8027H25.8766C24.2069 20.8027 22.8489 19.4443 22.8489 17.7749V7.03161Z" fill="url(#paint0_linear)"/>
<path d="M26.0662 18.3449H36.2236C36.7626 18.3449 37.2002 17.9073 37.2002 17.3679V15.823C37.2002 13.987 35.9097 12.4477 34.1885 12.0617C34.4307 11.5921 34.5684 11.0607 34.5684 10.4973V9.88539C34.5684 7.9975 33.0326 6.4617 31.1447 6.4617C29.2572 6.4617 27.7214 7.9975 27.7214 9.88539V10.4973C27.7214 11.0607 27.8591 11.5921 28.1014 12.0617C26.3798 12.4477 25.0897 13.987 25.0897 15.823V17.3679C25.0897 17.9073 25.5268 18.3449 26.0662 18.3449ZM29.6745 9.88539C29.6745 9.07477 30.3341 8.41521 31.1447 8.41521C31.9554 8.41521 32.6149 9.07477 32.6149 9.88539V10.4973C32.6149 11.3079 31.9554 11.9675 31.1447 11.9675C30.3341 11.9675 29.6745 11.3079 29.6745 10.4973V9.88539ZM27.0428 15.823C27.0428 14.7739 27.8961 13.9206 28.9452 13.9206H33.3443C34.3933 13.9206 35.2467 14.7739 35.2467 15.823V16.3914H27.0428V15.823Z" fill="url(#paint1_linear)"/>
<path d="M40.2332 10.0139H44.368C44.907 10.0139 45.3445 9.57678 45.3445 9.03738C45.3445 8.49799 44.907 8.06082 44.368 8.06082H40.2332C39.6942 8.06082 39.2567 8.49799 39.2567 9.03738C39.2567 9.57678 39.6942 10.0139 40.2332 10.0139Z" fill="url(#paint2_linear)"/>
<path d="M40.2332 13.9206H44.368C44.907 13.9206 45.3445 13.4834 45.3445 12.944C45.3445 12.4046 44.907 11.9675 44.368 11.9675H40.2332C39.6942 11.9675 39.2567 12.4046 39.2567 12.944C39.2567 13.4834 39.6942 13.9206 40.2332 13.9206Z" fill="url(#paint3_linear)"/>
<path d="M40.2332 17.8272H44.368C44.907 17.8272 45.3445 17.39 45.3445 16.8506C45.3445 16.3112 44.907 15.8741 44.368 15.8741H40.2332C39.6942 15.8741 39.2567 16.3112 39.2567 16.8506C39.2567 17.39 39.6942 17.8272 40.2332 17.8272Z" fill="url(#paint4_linear)"/>
<path d="M49.7141 46.463L47.5229 44.2719C47.2063 43.9553 46.7855 43.7809 46.3377 43.7809C45.8898 43.7809 45.4687 43.9553 45.1521 44.2719L43.5812 45.8428L42.0076 44.2692C41.3538 43.6157 40.2902 43.6157 39.6368 44.2692L38.0735 45.8325L36.421 44.1799C35.7671 43.5265 34.7036 43.5265 34.0501 44.1799L32.6395 45.5906L30.5032 41.9697L31.6476 41.1999C31.6484 41.1991 31.6496 41.1988 31.6503 41.198L31.7854 41.1072C33.09 40.2291 33.9254 38.8279 34.0769 37.2624C34.2283 35.6972 33.6775 34.1618 32.5658 33.0498L28.5337 29.0177C26.7091 27.1935 23.7718 26.9776 21.7004 28.5156L19.0908 30.4535C18.8932 30.6004 18.6132 30.5798 18.4393 30.4058L13.8319 25.7984C13.6579 25.6245 13.6373 25.3445 13.7838 25.1469L15.722 22.5372C17.2601 20.4659 17.0442 17.5282 15.22 15.7044L11.1879 11.6718C10.0759 10.5599 8.54011 10.0094 6.97494 10.1608C5.40977 10.3123 4.00863 11.1477 3.13049 12.4523L3.01224 12.6282C3.01109 12.6297 3.00995 12.6312 3.00918 12.6328L1.5451 14.8087C-0.877994 18.4097 -0.409167 23.251 2.65976 26.3199L7.52655 31.1863C7.90802 31.5678 8.52638 31.5678 8.90785 31.1863C9.28932 30.8052 9.28932 30.1865 8.90785 29.805L4.04106 24.9386C1.63093 22.5285 1.26282 18.7267 3.16559 15.8993L3.9743 14.6977L12.6604 23.3837L12.2156 23.9826C11.4961 24.9516 11.5972 26.3264 12.4506 27.1797L17.058 31.7867C17.9113 32.6405 19.2857 32.7416 20.2551 32.0217L20.8944 31.5476L29.582 40.2352L28.3384 41.0721C25.5106 42.9749 21.7088 42.6068 19.2991 40.1966L14.4327 35.3302C14.0512 34.9491 13.4332 34.9491 13.0514 35.3302C12.6699 35.7117 12.6699 36.3301 13.0514 36.7115L17.9178 41.5779C19.6729 43.3331 22.0068 44.2375 24.3578 44.2375C25.9077 44.2375 27.4648 43.8435 28.8671 43.0413L31.1392 46.891C31.4047 47.3408 31.854 47.6364 32.3721 47.7021C32.8905 47.7673 33.3994 47.5937 33.7682 47.2245L35.2354 45.7569L36.8879 47.4095C37.5417 48.0629 38.6053 48.0629 39.2587 47.4095L40.822 45.8462L42.3956 47.4201C43.0494 48.0736 44.1129 48.0736 44.7664 47.4201L46.3377 45.8489L48.3328 47.844C48.5235 48.0347 48.7734 48.1301 49.0232 48.1301C49.2735 48.1301 49.5233 48.0347 49.7141 47.844C50.0955 47.4625 50.0955 46.8441 49.7141 46.463ZM5.12367 13.0848C5.66192 12.5309 6.37947 12.1811 7.16339 12.1052C8.14644 12.0102 9.10889 12.3554 9.80659 13.0531L13.8387 17.0857C14.9831 18.2301 15.1186 20.0733 14.1538 21.3726L13.8376 21.7987L5.12367 13.0848ZM22.8651 30.0839C24.1644 29.1187 26.0076 29.2542 27.152 30.399L31.1842 34.4311C31.8819 35.1288 32.2275 36.0924 32.1325 37.0743C32.0581 37.8414 31.7213 38.5449 31.188 39.0789L22.4794 30.3703L22.8651 30.0839Z" fill="url(#paint5_linear)"/>
<path d="M10.9795 32.2815C10.7216 32.2815 10.4706 32.386 10.289 32.5676C10.1063 32.7496 10.0029 33.0013 10.0029 33.2581C10.0029 33.5152 10.1063 33.7669 10.289 33.9489C10.4706 34.1301 10.722 34.235 10.9795 34.235C11.2366 34.235 11.4883 34.1305 11.6699 33.9489C11.8515 33.7669 11.956 33.5152 11.956 33.2581C11.956 33.0013 11.8519 32.7496 11.6699 32.5676C11.4883 32.386 11.2366 32.2815 10.9795 32.2815Z" fill="url(#paint6_linear)"/>
</g>
<defs>
<linearGradient id="paint0_linear" x1="35.4477" y1="2.05076" x2="35.4477" y2="25.5882" gradientUnits="userSpaceOnUse">
<stop stop-color="#F7C340"/>
<stop offset="1" stop-color="#EFB111"/>
</linearGradient>
<linearGradient id="paint1_linear" x1="31.1449" y1="6.4617" x2="31.1449" y2="18.3449" gradientUnits="userSpaceOnUse">
<stop stop-color="#F7C340"/>
<stop offset="1" stop-color="#EFB111"/>
</linearGradient>
<linearGradient id="paint2_linear" x1="42.3006" y1="8.06082" x2="42.3006" y2="10.0139" gradientUnits="userSpaceOnUse">
<stop stop-color="#F7C340"/>
<stop offset="1" stop-color="#EFB111"/>
</linearGradient>
<linearGradient id="paint3_linear" x1="42.3006" y1="11.9675" x2="42.3006" y2="13.9206" gradientUnits="userSpaceOnUse">
<stop stop-color="#F7C340"/>
<stop offset="1" stop-color="#EFB111"/>
</linearGradient>
<linearGradient id="paint4_linear" x1="42.3006" y1="15.8741" x2="42.3006" y2="17.8272" gradientUnits="userSpaceOnUse">
<stop stop-color="#F7C340"/>
<stop offset="1" stop-color="#EFB111"/>
</linearGradient>
<linearGradient id="paint5_linear" x1="25.0002" y1="10.1362" x2="25.0002" y2="48.1301" gradientUnits="userSpaceOnUse">
<stop stop-color="#F7C340"/>
<stop offset="1" stop-color="#EFB111"/>
</linearGradient>
<linearGradient id="paint6_linear" x1="10.9795" y1="32.2815" x2="10.9795" y2="34.235" gradientUnits="userSpaceOnUse">
<stop stop-color="#F7C340"/>
<stop offset="1" stop-color="#EFB111"/>
</linearGradient>
<clipPath id="clip0">
<rect width="50" height="50" fill="white"/>
</clipPath>
</defs>
</svg>
