<svg width="50" height="50" viewBox="0 0 50 50" fill="none" xmlns="http://www.w3.org/2000/svg">
<g clip-path="url(#clip0)">
<path d="M36.6086 39.6123V31.6021C36.6085 30.4015 35.6318 29.4247 34.4312 29.4247H6.34825C5.14767 29.4247 4.17081 30.4015 4.17081 31.6021V39.6123C3.2714 39.9181 2.62218 40.7703 2.62218 41.7719C2.62218 43.0296 3.64542 44.0528 4.90294 44.0528H35.8764C37.134 44.0528 38.1571 43.0295 38.1571 41.7719C38.1572 40.7703 37.508 39.9181 36.6086 39.6123ZM5.63517 31.602C5.63517 31.2088 5.95499 30.889 6.34825 30.889H34.4312C34.8243 30.889 35.1443 31.2088 35.1443 31.602V39.491H5.63517V31.602ZM35.8763 42.5884H4.90304C4.45294 42.5884 4.08663 42.2221 4.08663 41.7719C4.08663 41.3218 4.45294 40.9555 4.90304 40.9555H35.8765C36.3266 40.9555 36.6929 41.3218 36.6929 41.7719C36.6928 42.2221 36.3266 42.5884 35.8763 42.5884Z" fill="url(#paint0_linear)"/>
<path d="M38.0591 32.2323H37.4227V33.6967H38.0591C38.887 33.6967 38.887 33.8947 38.887 34.1687V43.9545C38.887 44.6218 38.4382 45.4115 38.0591 45.4115H2.72031C2.28789 45.4115 1.69218 44.5673 1.69218 43.9545V34.1688C1.69218 34.0156 1.69218 33.6968 2.72031 33.6968H3.35185V32.2324H2.72031C2.06904 32.2324 1.5332 32.3497 1.12763 32.581C0.54736 32.9118 0.227829 33.4758 0.227829 34.169V43.9548C0.227829 44.57 0.480954 45.2744 0.904977 45.8389C1.4 46.4982 2.06181 46.8762 2.72041 46.8762H3.35195V50H4.81631V46.876H36.6419V50H38.1062V46.8742C39.5523 46.8377 40.3517 45.1358 40.3517 43.9546V34.1688C40.3514 33.4455 40.0535 32.2323 38.0591 32.2323Z" fill="url(#paint1_linear)"/>
<path d="M9.59943 33.7946H8.03741V35.259H9.59943V33.7946Z" fill="url(#paint2_linear)"/>
<path d="M32.834 33.7946H31.1744V35.259H32.834V33.7946Z" fill="url(#paint3_linear)"/>
<path d="M21.2167 33.7946H19.6547V35.259H21.2167V33.7946Z" fill="url(#paint4_linear)"/>
<path d="M0.299133 16.951H24.2192V0H0.299133V16.951ZM1.76349 1.46436H22.7548V15.4866H1.76349V1.46436Z" fill="url(#paint5_linear)"/>
<path d="M2.62218 2.32294V14.628H21.8962V2.32294H2.62218ZM20.4318 13.1637H4.08653V3.78729H20.4317V13.1637H20.4318Z" fill="url(#paint6_linear)"/>
<path d="M25.0779 17.0354V27.7917H38.9316V17.0354H25.0779ZM37.4672 26.3273H26.5422V18.4997H37.4672V26.3273Z" fill="url(#paint7_linear)"/>
<path d="M27.4007 19.3583V25.4686H36.6084V19.3583H27.4007ZM35.1442 24.0043H28.8652V20.8227H35.1442V24.0043Z" fill="url(#paint8_linear)"/>
<path d="M32.0047 3.09737C28.6121 3.09737 25.8522 5.85733 25.8522 9.24981C25.8522 12.6424 28.6122 15.4022 32.0047 15.4022C35.3972 15.4022 38.1571 12.6422 38.1571 9.24981C38.1572 5.85733 35.3973 3.09737 32.0047 3.09737ZM32.7367 13.8806V13.098H31.2724V13.8805C29.3027 13.5701 27.7378 12.0288 27.3901 10.0717H28.246V8.60723H27.3616C27.643 6.56543 29.243 4.93897 31.2724 4.61924V5.67842H32.7367V4.61934C34.7662 4.93897 36.3664 6.56553 36.6476 8.60733H35.6654V10.0717H36.6192C36.2716 12.0289 34.7065 13.5703 32.7367 13.8806Z" fill="url(#paint9_linear)"/>
<path d="M31.2724 6.85001V8.60723H28.8317V10.0716H32.7367V6.85001H31.2724Z" fill="url(#paint10_linear)"/>
<path d="M45.916 46.1672V46.1671V28.9131H44.4517V46.1671H40.5645V49.9544H49.7721V46.1671H45.916V46.1672ZM48.3078 48.4901H42.0289V47.6315H48.3078V48.4901Z" fill="url(#paint11_linear)"/>
<path d="M42.1131 10.0663V27.0173H44.4515V28.2297H45.9159V27.0174H48.2234V10.0663H42.1131ZM46.7592 23.2509H44.4516V24.7152H46.7592V25.553H43.5775V11.5307H46.7592V23.2509Z" fill="url(#paint12_linear)"/>
<path d="M10.5797 5.63511L9.03113 7.18369L10.0666 8.21913L11.6152 6.67055L10.5797 5.63511Z" fill="url(#paint13_linear)"/>
<path d="M14.4513 4.86051L9.0311 10.2807L10.0665 11.3162L15.4868 5.89595L14.4513 4.86051Z" fill="url(#paint14_linear)"/>
<path d="M14.451 8.7326L12.9025 10.2812L13.9379 11.3166L15.4865 9.76804L14.451 8.7326Z" fill="url(#paint15_linear)"/>
</g>
<defs>
<linearGradient id="paint0_linear" x1="20.3897" y1="29.4247" x2="20.3897" y2="44.0528" gradientUnits="userSpaceOnUse">
<stop stop-color="#F7C340"/>
<stop offset="1" stop-color="#EFB111"/>
</linearGradient>
<linearGradient id="paint1_linear" x1="20.2897" y1="32.2323" x2="20.2897" y2="50" gradientUnits="userSpaceOnUse">
<stop stop-color="#F7C340"/>
<stop offset="1" stop-color="#EFB111"/>
</linearGradient>
<linearGradient id="paint2_linear" x1="8.81842" y1="33.7946" x2="8.81842" y2="35.259" gradientUnits="userSpaceOnUse">
<stop stop-color="#F7C340"/>
<stop offset="1" stop-color="#EFB111"/>
</linearGradient>
<linearGradient id="paint3_linear" x1="32.0042" y1="33.7946" x2="32.0042" y2="35.259" gradientUnits="userSpaceOnUse">
<stop stop-color="#F7C340"/>
<stop offset="1" stop-color="#EFB111"/>
</linearGradient>
<linearGradient id="paint4_linear" x1="20.4357" y1="33.7946" x2="20.4357" y2="35.259" gradientUnits="userSpaceOnUse">
<stop stop-color="#F7C340"/>
<stop offset="1" stop-color="#EFB111"/>
</linearGradient>
<linearGradient id="paint5_linear" x1="12.2591" y1="0" x2="12.2591" y2="16.951" gradientUnits="userSpaceOnUse">
<stop stop-color="#F7C340"/>
<stop offset="1" stop-color="#EFB111"/>
</linearGradient>
<linearGradient id="paint6_linear" x1="12.2592" y1="2.32294" x2="12.2592" y2="14.628" gradientUnits="userSpaceOnUse">
<stop stop-color="#F7C340"/>
<stop offset="1" stop-color="#EFB111"/>
</linearGradient>
<linearGradient id="paint7_linear" x1="32.0047" y1="17.0354" x2="32.0047" y2="27.7917" gradientUnits="userSpaceOnUse">
<stop stop-color="#F7C340"/>
<stop offset="1" stop-color="#EFB111"/>
</linearGradient>
<linearGradient id="paint8_linear" x1="32.0046" y1="19.3583" x2="32.0046" y2="25.4686" gradientUnits="userSpaceOnUse">
<stop stop-color="#F7C340"/>
<stop offset="1" stop-color="#EFB111"/>
</linearGradient>
<linearGradient id="paint9_linear" x1="32.0047" y1="3.09737" x2="32.0047" y2="15.4022" gradientUnits="userSpaceOnUse">
<stop stop-color="#F7C340"/>
<stop offset="1" stop-color="#EFB111"/>
</linearGradient>
<linearGradient id="paint10_linear" x1="30.7842" y1="6.85001" x2="30.7842" y2="10.0716" gradientUnits="userSpaceOnUse">
<stop stop-color="#F7C340"/>
<stop offset="1" stop-color="#EFB111"/>
</linearGradient>
<linearGradient id="paint11_linear" x1="45.1683" y1="28.9131" x2="45.1683" y2="49.9544" gradientUnits="userSpaceOnUse">
<stop stop-color="#F7C340"/>
<stop offset="1" stop-color="#EFB111"/>
</linearGradient>
<linearGradient id="paint12_linear" x1="45.1682" y1="10.0663" x2="45.1682" y2="28.2297" gradientUnits="userSpaceOnUse">
<stop stop-color="#F7C340"/>
<stop offset="1" stop-color="#EFB111"/>
</linearGradient>
<linearGradient id="paint13_linear" x1="9.80542" y1="6.4094" x2="10.8409" y2="7.44484" gradientUnits="userSpaceOnUse">
<stop stop-color="#F7C340"/>
<stop offset="1" stop-color="#EFB111"/>
</linearGradient>
<linearGradient id="paint14_linear" x1="11.7412" y1="7.57062" x2="12.7767" y2="8.60606" gradientUnits="userSpaceOnUse">
<stop stop-color="#F7C340"/>
<stop offset="1" stop-color="#EFB111"/>
</linearGradient>
<linearGradient id="paint15_linear" x1="13.6768" y1="9.50689" x2="14.7122" y2="10.5423" gradientUnits="userSpaceOnUse">
<stop stop-color="#F7C340"/>
<stop offset="1" stop-color="#EFB111"/>
</linearGradient>
<clipPath id="clip0">
<rect width="50" height="50" fill="white"/>
</clipPath>
</defs>
</svg>
