<svg width="50" height="50" viewBox="0 0 50 50" fill="none" xmlns="http://www.w3.org/2000/svg">
<g clip-path="url(#clip0)">
<path d="M37.7626 29.7268C34.2873 29.7268 31.4601 32.5541 31.4601 36.0294C31.4601 39.5047 34.2873 42.3319 37.7626 42.3319C41.2385 42.3319 44.0652 39.5047 44.0652 36.0294C44.0652 32.5541 41.2379 29.7268 37.7626 29.7268ZM37.7626 39.1806C36.0247 39.1806 34.6114 37.7673 34.6114 36.0294C34.6114 34.2915 36.0247 32.8781 37.7626 32.8781C39.5005 32.8781 40.9139 34.2915 40.9139 36.0294C40.9139 37.7674 39.5005 39.1806 37.7626 39.1806Z" fill="url(#paint0_linear)"/>
<path d="M16.229 29.7268C12.7537 29.7268 9.92645 32.5541 9.92645 36.0294C9.92645 39.5047 12.7537 42.3319 16.229 42.3319C19.7043 42.3319 22.5315 39.5047 22.5315 36.0294C22.5315 32.5541 19.7043 29.7268 16.229 29.7268ZM16.229 39.1806C14.4911 39.1806 13.0777 37.7673 13.0777 36.0294C13.0777 34.2915 14.4911 32.8781 16.229 32.8781C17.9664 32.8781 19.3803 34.2915 19.3803 36.0294C19.3803 37.7674 17.9669 39.1806 16.229 39.1806Z" fill="url(#paint1_linear)"/>
<path d="M42.0069 11.687C41.739 11.155 41.1944 10.8193 40.5988 10.8193H32.3004V13.9706H39.6271L43.9175 22.5042L46.7337 21.0882L42.0069 11.687Z" fill="url(#paint2_linear)"/>
<path d="M33.0357 34.5063H21.1135V37.6576H33.0357V34.5063Z" fill="url(#paint3_linear)"/>
<path d="M11.5021 34.5063H6.03994C5.16963 34.5063 4.46436 35.2117 4.46436 36.0819C4.46436 36.9522 5.16973 37.6575 6.03994 37.6575H11.5021C12.3725 37.6575 13.0777 36.9521 13.0777 36.0819C13.0777 35.2116 12.3724 34.5063 11.5021 34.5063Z" fill="url(#paint4_linear)"/>
<path d="M49.6691 24.8739L46.5699 20.8823C46.2722 20.4979 45.8126 20.2731 45.3257 20.2731H33.8761V9.24367C33.8761 8.37336 33.1707 7.66808 32.3005 7.66808H6.03994C5.16963 7.66808 4.46436 8.37345 4.46436 9.24367C4.46436 10.1139 5.16973 10.8193 6.03994 10.8193H30.7248V21.8486C30.7248 22.719 31.4302 23.4242 32.3004 23.4242H44.5541L46.8487 26.3801V34.5062H42.4895C41.6191 34.5062 40.9139 35.2115 40.9139 36.0818C40.9139 36.9521 41.6192 37.6573 42.4895 37.6573H48.4243C49.2946 37.6573 49.9999 36.952 50 36.0818V25.8404C50 25.4905 49.8834 25.1502 49.6691 24.8739Z" fill="url(#paint5_linear)"/>
<path d="M11.3971 26.5232H4.14913C3.27882 26.5232 2.57355 27.2285 2.57355 28.0987C2.57355 28.9691 3.27892 29.6743 4.14913 29.6743H11.397C12.2673 29.6743 12.9726 28.969 12.9726 28.0987C12.9727 27.2285 12.2673 26.5232 11.3971 26.5232Z" fill="url(#paint6_linear)"/>
<path d="M15.021 20.3256H1.57559C0.705371 20.3256 0 21.031 0 21.9013C0 22.7716 0.705371 23.4769 1.57559 23.4769H15.021C15.8913 23.4769 16.5966 22.7715 16.5966 21.9013C16.5966 21.0311 15.8913 20.3256 15.021 20.3256Z" fill="url(#paint7_linear)"/>
<path d="M17.5945 14.1281H4.14913C3.27882 14.1281 2.57355 14.8335 2.57355 15.7037C2.57355 16.574 3.27892 17.2793 4.14913 17.2793H17.5945C18.4649 17.2793 19.1701 16.5739 19.1701 15.7037C19.1702 14.8335 18.4649 14.1281 17.5945 14.1281Z" fill="url(#paint8_linear)"/>
</g>
<defs>
<linearGradient id="paint0_linear" x1="37.7626" y1="29.7268" x2="37.7626" y2="42.3319" gradientUnits="userSpaceOnUse">
<stop stop-color="#F7C340"/>
<stop offset="1" stop-color="#EFB111"/>
</linearGradient>
<linearGradient id="paint1_linear" x1="16.229" y1="29.7268" x2="16.229" y2="42.3319" gradientUnits="userSpaceOnUse">
<stop stop-color="#F7C340"/>
<stop offset="1" stop-color="#EFB111"/>
</linearGradient>
<linearGradient id="paint2_linear" x1="39.5171" y1="10.8193" x2="39.5171" y2="22.5042" gradientUnits="userSpaceOnUse">
<stop stop-color="#F7C340"/>
<stop offset="1" stop-color="#EFB111"/>
</linearGradient>
<linearGradient id="paint3_linear" x1="27.0746" y1="34.5063" x2="27.0746" y2="37.6576" gradientUnits="userSpaceOnUse">
<stop stop-color="#F7C340"/>
<stop offset="1" stop-color="#EFB111"/>
</linearGradient>
<linearGradient id="paint4_linear" x1="8.77105" y1="34.5063" x2="8.77105" y2="37.6575" gradientUnits="userSpaceOnUse">
<stop stop-color="#F7C340"/>
<stop offset="1" stop-color="#EFB111"/>
</linearGradient>
<linearGradient id="paint5_linear" x1="27.2322" y1="7.66808" x2="27.2322" y2="37.6573" gradientUnits="userSpaceOnUse">
<stop stop-color="#F7C340"/>
<stop offset="1" stop-color="#EFB111"/>
</linearGradient>
<linearGradient id="paint6_linear" x1="7.77306" y1="26.5232" x2="7.77306" y2="29.6743" gradientUnits="userSpaceOnUse">
<stop stop-color="#F7C340"/>
<stop offset="1" stop-color="#EFB111"/>
</linearGradient>
<linearGradient id="paint7_linear" x1="8.29829" y1="20.3256" x2="8.29829" y2="23.4769" gradientUnits="userSpaceOnUse">
<stop stop-color="#F7C340"/>
<stop offset="1" stop-color="#EFB111"/>
</linearGradient>
<linearGradient id="paint8_linear" x1="10.8718" y1="14.1281" x2="10.8718" y2="17.2793" gradientUnits="userSpaceOnUse">
<stop stop-color="#F7C340"/>
<stop offset="1" stop-color="#EFB111"/>
</linearGradient>
<clipPath id="clip0">
<rect width="50" height="50" fill="white"/>
</clipPath>
</defs>
</svg>
