<svg width="30" height="30" viewBox="0 0 30 30" fill="none" xmlns="http://www.w3.org/2000/svg">
<g clip-path="url(#clip0)">
<path d="M24.1845 0H5.81551C5.57235 0 5.37518 0.197168 5.37518 0.440332V17.4012C5.37518 17.6443 5.57235 17.8415 5.81551 17.8415C6.05868 17.8415 6.25584 17.6444 6.25584 17.4012V0.880605H23.7443V29.1193H22.7506V23.1668C22.7506 22.9236 22.5535 22.7265 22.3103 22.7265C22.0671 22.7265 21.87 22.9236 21.87 23.1668V29.1193H8.13008V2.7549H21.87V21.4056C21.87 21.6488 22.0671 21.8459 22.3103 21.8459C22.5535 21.8459 22.7506 21.6488 22.7506 21.4056V2.31457C22.7506 2.07141 22.5535 1.87424 22.3103 1.87424H7.68975C7.44659 1.87424 7.24942 2.07135 7.24942 2.31457V29.1194H6.25579V19.1624C6.25579 18.9193 6.05862 18.7221 5.81545 18.7221C5.57229 18.7221 5.37512 18.9192 5.37512 19.1624V29.5597C5.37512 29.8028 5.57229 30 5.81545 30H24.1845C24.4276 30 24.6248 29.8028 24.6248 29.5597V0.440332C24.6249 0.197168 24.4277 0 24.1845 0V0Z" fill="black"/>
<path d="M10.1364 9.82031C9.89327 9.82031 9.69611 10.0175 9.69611 10.2606V14.4731C9.69611 14.7162 9.89327 14.9134 10.1364 14.9134H19.8636C20.1068 14.9134 20.304 14.7162 20.304 14.4731V4.70303C20.304 4.45986 20.1068 4.2627 19.8636 4.2627H10.1364C9.89327 4.2627 9.69611 4.4598 9.69611 4.70303V8.49938C9.69611 8.74254 9.89327 8.93971 10.1364 8.93971C10.3796 8.93971 10.5768 8.74254 10.5768 8.49938V5.14336H19.4233V14.0327H10.5767V10.2606C10.5767 10.0174 10.3796 9.82031 10.1364 9.82031Z" fill="black"/>
<path d="M9.69611 27.1712C9.69611 27.4144 9.89327 27.6115 10.1364 27.6115H19.8636C20.1068 27.6115 20.304 27.4144 20.304 27.1712V17.4012C20.304 17.158 20.1068 16.9608 19.8636 16.9608H10.1364C9.89327 16.9608 9.69611 17.158 9.69611 17.4012V27.1712ZM10.5767 17.8415H19.4233V26.7309H10.5767V17.8415Z" fill="black"/>
<path d="M21.4639 15.9372C21.4639 15.4788 21.0911 15.106 20.6327 15.106C20.3363 15.106 20.0762 15.2625 19.929 15.4968H18.8783C18.6352 15.4968 18.438 15.6939 18.438 15.9372C18.438 16.1803 18.6352 16.3775 18.8783 16.3775H19.929C20.0762 16.6118 20.3362 16.7684 20.6327 16.7684C21.0911 16.7684 21.4639 16.3955 21.4639 15.9372Z" fill="black"/>
</g>
<defs>
<clipPath id="clip0">
<rect width="30" height="30" fill="white"/>
</clipPath>
</defs>
</svg>
