<svg width="50" height="50" viewBox="0 0 50 50" fill="none" xmlns="http://www.w3.org/2000/svg">
<g clip-path="url(#clip0)">
<path d="M49.7962 21.3241L41.4275 10.453C41.1177 10.0509 40.5528 9.95175 40.1244 10.2241L34.7213 13.6604H27.6744C27.5832 13.6604 27.4924 13.6799 27.4047 13.7054L21.9409 15.2782L16.2715 13.7275L10.7627 10.2241C10.3415 9.95633 9.78686 10.0471 9.47367 10.4355L0.217311 21.9009C-0.11533 22.3129 -0.0603988 22.9145 0.340907 23.2597L5.19244 27.4349L9.54501 33.3004C8.27205 34.6565 8.29684 36.7954 9.6213 38.1202C10.2084 38.7069 10.9549 39.0384 11.7228 39.1155C11.6961 39.2894 11.6824 39.4661 11.6824 39.6454C11.6824 40.5708 12.0429 41.4409 12.6971 42.0951C13.3517 42.7498 14.2218 43.1102 15.1473 43.1102C15.1599 43.1102 15.1721 43.1095 15.1843 43.1091C15.1839 43.1327 15.1828 43.156 15.1828 43.1797C15.1828 44.1051 15.5432 44.9752 16.1975 45.6298C16.8521 46.2841 17.7222 46.6446 18.6476 46.6446C18.8304 46.6446 19.0112 46.6297 19.1886 46.6022C19.2637 47.3728 19.596 48.1228 20.185 48.7117C20.8602 49.3873 21.7475 49.7249 22.6348 49.7249C23.5221 49.7249 24.4094 49.3873 25.0849 48.7117L25.6148 48.1819L25.8372 48.3612C26.5071 49.0101 27.3768 49.3343 28.2466 49.3343C29.1339 49.3343 30.0212 48.9967 30.6964 48.3211C31.3857 47.6318 31.7233 46.722 31.7092 45.8168C32.614 45.8305 33.5242 45.4933 34.2135 44.8043C34.9021 44.1154 35.2397 43.2064 35.2263 42.3015C36.1689 42.3164 37.0631 41.9544 37.7303 41.2872C38.4196 40.5979 38.7572 39.6881 38.7431 38.7829C39.6487 38.7966 40.5581 38.4594 41.2474 37.77C42.4239 36.5936 42.5753 34.7751 41.7029 33.4327L44.8809 26.7769L49.6588 22.6654C50.0537 22.3255 50.1139 21.7365 49.7962 21.3241ZM10.4491 12.3485L14.4103 14.8674L5.79325 25.3654L2.34019 22.3934L10.4491 12.3485ZM11.0079 34.6065L12.2035 33.411C12.2397 33.3748 12.2779 33.3404 12.3168 33.3084C12.5506 33.1176 12.8337 33.004 13.1335 32.9769C13.1419 32.9761 13.1507 32.9761 13.1591 32.9757C13.2018 32.9723 13.2445 32.97 13.2876 32.9704C13.6973 32.9761 14.078 33.1436 14.3603 33.4415C14.9142 34.0271 14.8844 34.9838 14.2939 35.5743L13.1346 36.7336C12.5483 37.3199 11.5943 37.3199 11.0079 36.7336C10.4216 36.1469 10.4216 35.1928 11.0079 34.6065ZM14.0837 40.7085C13.7995 40.4247 13.6431 40.047 13.6431 39.6454C13.6431 39.2437 13.7995 38.866 14.0837 38.5818L16.4019 36.2636C16.846 35.8196 17.544 35.6979 18.1117 35.9684C18.6968 36.2472 19.0261 36.8824 18.9402 37.5213C18.8945 37.8624 18.7358 38.1836 18.4924 38.4273L16.2108 40.7085C15.9266 40.9927 15.549 41.1491 15.1473 41.1491C14.7456 41.1491 14.3679 40.9927 14.0837 40.7085ZM17.5841 44.2428C17.2999 43.959 17.1435 43.5814 17.1435 43.1797C17.1435 42.778 17.2999 42.4003 17.5841 42.1161L19.9019 39.7979C20.3768 39.3234 21.1386 39.2212 21.72 39.5595C22.251 39.8685 22.5291 40.475 22.4379 41.0793C22.388 41.4116 22.23 41.724 21.9924 41.9616L19.7112 44.2428C19.427 44.527 19.0493 44.6834 18.6476 44.6834C18.246 44.6834 17.8683 44.527 17.5841 44.2428ZM21.5712 47.3251C20.9849 46.7388 20.9849 45.7847 21.5712 45.1984L22.7668 44.0029C22.803 43.9666 22.8408 43.9327 22.8797 43.9006C22.8808 43.8999 22.8816 43.8991 22.8823 43.8984C23.0769 43.7404 23.3054 43.6348 23.5491 43.5886C23.5549 43.5878 23.5606 43.5871 23.5663 43.5863C23.6083 43.5787 23.651 43.5726 23.6937 43.5688C23.7109 43.5672 23.7281 43.5672 23.7456 43.5661C23.7807 43.5642 23.8154 43.5619 23.8509 43.5623C24.2602 43.568 24.6413 43.7351 24.9236 44.0334C24.9583 44.07 24.9907 44.1082 25.0205 44.1475C25.4714 44.7368 25.4107 45.6123 24.8511 46.1723L23.6979 47.3255C23.1116 47.9118 22.1575 47.9114 21.5712 47.3251ZM39.8608 36.3834C39.2745 36.9701 38.3204 36.9697 37.7341 36.3834C37.7127 36.362 37.6902 36.3422 37.6673 36.3235L31.3632 29.953C30.9821 29.5681 30.3614 29.565 29.9765 29.9461C29.5916 30.3268 29.5886 30.9475 29.9693 31.3324L36.3417 37.7712C36.3425 37.772 36.3433 37.7727 36.344 37.7735C36.9303 38.3598 36.9303 39.3142 36.344 39.9006C36.0598 40.1848 35.6822 40.3412 35.2805 40.3412C34.8784 40.3412 34.5008 40.1848 34.2169 39.9006L29.954 35.5934C29.5733 35.2085 28.9527 35.2054 28.5678 35.5861C28.1829 35.9672 28.1798 36.5879 28.5605 36.9728L32.7582 41.214C32.7796 41.2407 32.8025 41.2662 32.8269 41.2906C33.4132 41.877 33.4132 42.8314 32.8269 43.4177C32.2402 44.004 31.2857 44.0036 30.6994 43.4173L28.3728 41.0663C27.9917 40.6814 27.3711 40.678 26.9862 41.0591C26.6013 41.4398 26.5982 42.0604 26.9789 42.4453L29.2407 44.7303C29.262 44.757 29.2849 44.783 29.3097 44.8074C29.896 45.3937 29.896 46.3482 29.3097 46.9345C28.7234 47.5212 27.7693 47.5208 27.183 46.9345C27.1155 46.867 27.0362 46.8151 26.9606 46.7571C26.8965 46.7083 26.8798 46.6743 26.9118 46.5965C26.9442 46.5175 26.9927 46.4462 27.0251 46.3668C27.061 46.2783 27.0899 46.1872 27.1182 46.0956C27.2685 45.6112 27.3127 45.0901 27.2452 44.5873C27.1155 43.6226 26.5849 42.752 25.7807 42.2012C25.3463 41.904 24.8435 41.7091 24.3224 41.6359C24.5749 40.522 24.2717 39.3142 23.4828 38.4807C22.8335 37.7948 21.9565 37.4099 21.0131 37.397C20.9788 37.3966 20.9445 37.3966 20.9098 37.397C20.9307 36.4967 20.6034 35.6022 19.9828 34.9464C19.3331 34.2605 18.4561 33.8756 17.5131 33.8627C17.2328 33.8588 16.9497 33.8886 16.6766 33.9515C16.5599 33.1394 16.1505 32.3879 15.5307 31.8504C14.9146 31.3171 14.1398 31.0211 13.3147 31.0096C12.4461 30.9971 11.5927 31.3175 10.9477 31.9L7.15777 26.7933L16.2245 15.7474L19.1142 16.5378L15.3403 23.1971C14.8841 24.0024 14.7689 24.937 15.0157 25.8289C15.2625 26.7212 15.8415 27.4635 16.6468 27.9197C16.6972 27.9483 16.7479 27.9754 16.7994 28.0014C16.8032 28.0033 16.807 28.0052 16.8112 28.0071C16.9467 28.0746 17.0859 28.1326 17.227 28.1814C17.8843 28.4092 18.5942 28.434 19.279 28.2447C20.1708 27.9979 20.9132 27.4185 21.3694 26.6136L23.8219 22.2858L28.2008 22.5963L39.8612 34.2563C40.4471 34.843 40.4471 35.7971 39.8608 36.3834ZM40.2671 31.8893L29.3284 20.951C29.3078 20.9301 29.2861 20.9102 29.2636 20.8915C29.106 20.7603 28.9107 20.681 28.7047 20.6665L23.3432 20.2861C22.9724 20.2606 22.6039 20.4578 22.4208 20.7809L19.6635 25.6469C19.4655 25.9964 19.1432 26.2478 18.756 26.3549C18.3692 26.4621 17.9633 26.4118 17.6135 26.2138C17.264 26.0158 17.0127 25.6935 16.9055 25.3063C16.7983 24.9191 16.8482 24.5132 17.0466 24.1638L20.7274 17.6677L22.219 17.2386C22.2289 17.2355 22.2384 17.2317 22.2483 17.2287L27.8151 15.6212H34.5412L42.9381 26.2954L40.2671 31.8893ZM44.2225 24.7566L36.4573 14.88L40.4204 12.3596L47.6763 21.7846L44.2225 24.7566Z" fill="url(#paint0_linear)"/>
<path d="M30.2914 11.8195C30.5424 11.8195 30.7934 11.7238 30.9849 11.5323L37.682 4.83518C38.0649 4.45218 38.0649 3.83153 37.682 3.44853C37.299 3.06554 36.6783 3.06554 36.2953 3.44853L29.5982 10.1456C29.2152 10.5286 29.2152 11.1493 29.5982 11.5323C29.7897 11.7238 30.0407 11.8195 30.2914 11.8195Z" fill="url(#paint1_linear)"/>
<path d="M19.0152 11.5323C19.2066 11.7238 19.4577 11.8195 19.7087 11.8195C19.9593 11.8195 20.2103 11.7238 20.4018 11.5323C20.7848 11.1493 20.7848 10.5286 20.4018 10.1456L13.7047 3.44853C13.3217 3.06554 12.7011 3.06554 12.3181 3.44853C11.9351 3.83153 11.9351 4.45218 12.3181 4.83518L19.0152 11.5323Z" fill="url(#paint2_linear)"/>
<path d="M25 11.8195C25.5413 11.8195 25.9804 11.3804 25.9804 10.8391V5.29675C25.9804 4.75545 25.5413 4.31638 25 4.31638C24.4587 4.31638 24.0197 4.75545 24.0197 5.29675V10.8391C24.0197 11.3804 24.4587 11.8195 25 11.8195Z" fill="url(#paint3_linear)"/>
<path d="M24.0951 1.74332C24.2508 2.1206 24.6387 2.36817 25.0481 2.34681C25.4524 2.32583 25.8076 2.0527 25.9327 1.66779C26.0582 1.27984 25.9216 0.837714 25.5966 0.590522C25.2651 0.337989 24.8028 0.323874 24.456 0.553138C24.0692 0.808723 23.9193 1.3176 24.0951 1.74332Z" fill="url(#paint4_linear)"/>
</g>
<defs>
<linearGradient id="paint0_linear" x1="24.9998" y1="10.0708" x2="24.9998" y2="49.7249" gradientUnits="userSpaceOnUse">
<stop stop-color="#F7C340"/>
<stop offset="1" stop-color="#EFB111"/>
</linearGradient>
<linearGradient id="paint1_linear" x1="33.6401" y1="3.16129" x2="33.6401" y2="11.8195" gradientUnits="userSpaceOnUse">
<stop stop-color="#F7C340"/>
<stop offset="1" stop-color="#EFB111"/>
</linearGradient>
<linearGradient id="paint2_linear" x1="16.3599" y1="3.16129" x2="16.3599" y2="11.8195" gradientUnits="userSpaceOnUse">
<stop stop-color="#F7C340"/>
<stop offset="1" stop-color="#EFB111"/>
</linearGradient>
<linearGradient id="paint3_linear" x1="25" y1="4.31638" x2="25" y2="11.8195" gradientUnits="userSpaceOnUse">
<stop stop-color="#F7C340"/>
<stop offset="1" stop-color="#EFB111"/>
</linearGradient>
<linearGradient id="paint4_linear" x1="25.0005" y1="0.39064" x2="25.0005" y2="2.34809" gradientUnits="userSpaceOnUse">
<stop stop-color="#F7C340"/>
<stop offset="1" stop-color="#EFB111"/>
</linearGradient>
<clipPath id="clip0">
<rect width="50" height="50" fill="white"/>
</clipPath>
</defs>
</svg>
