<svg width="50" height="50" viewBox="0 0 50 50" fill="none" xmlns="http://www.w3.org/2000/svg">
<path d="M35.4167 0C27.362 0 20.8335 6.52854 20.8335 14.5831C20.8335 17.859 21.9135 20.8824 23.7367 23.3168L14.1522 32.9014C14.1522 32.9014 14.1522 32.9014 14.1521 32.9015C14.152 32.9016 14.1521 32.9015 14.152 32.9016L7.90213 39.1514C7.90213 39.1514 7.90213 39.1514 7.90203 39.1515C7.90193 39.1516 7.90203 39.1515 7.90193 39.1516L0.609929 46.4436C-0.203635 47.2572 -0.203635 48.5763 0.609929 49.3899C1.42349 50.2034 2.74262 50.2034 3.55618 49.3899L9.37526 43.5708L15.1937 49.3893C16.0073 50.2028 17.3264 50.2028 18.14 49.3893C18.9536 48.5757 18.9536 47.2566 18.14 46.443L12.3215 40.6245L15.6252 37.3209L19.3603 41.056C20.1739 41.8695 21.493 41.8695 22.3066 41.056C23.1201 40.2424 23.1201 38.9233 22.3066 38.1097L18.5714 34.3746L26.6829 26.2631C29.1173 28.0863 32.1407 29.1663 35.4166 29.1663C43.4712 29.1663 49.9997 22.6377 49.9997 14.5831C49.9997 6.52854 43.4713 0 35.4167 0ZM35.4167 24.9997C32.5475 24.9997 29.9497 23.84 28.066 21.9638C28.061 21.9587 28.0568 21.9532 28.0517 21.9481C28.0466 21.943 28.0411 21.9388 28.036 21.9338C26.1598 20.0501 25.0001 17.4522 25.0001 14.5831C25.0001 8.82958 29.6631 4.16655 35.4167 4.16655C41.1702 4.16655 45.8332 8.82958 45.8332 14.5831C45.8332 20.3367 41.1702 24.9997 35.4167 24.9997Z" fill="url(#paint0_linear)"/>
<defs>
<linearGradient id="paint0_linear" x1="24.9997" y1="0" x2="24.9997" y2="50" gradientUnits="userSpaceOnUse">
<stop stop-color="#F7C340"/>
<stop offset="1" stop-color="#EFB111"/>
</linearGradient>
</defs>
</svg>
