<svg width="30" height="30" viewBox="0 0 30 30" fill="none" xmlns="http://www.w3.org/2000/svg">
<path d="M11.25 0.9375H3.75C3.49125 0.9375 3.28125 1.14703 3.28125 1.40625V3.11156L1.04625 5.79375C0.929528 5.93391 0.904685 6.12844 0.98156 6.2925C1.0589 6.45703 1.22437 6.5625 1.40625 6.5625H13.5937C13.7756 6.5625 13.9411 6.45703 14.0184 6.2925C14.0958 6.12797 14.0705 5.93344 13.9537 5.79375L11.7187 3.11156V1.40625C11.7187 1.14703 11.5087 0.9375 11.25 0.9375ZM4.21875 1.875H10.7812V2.8125H4.21875V1.875ZM2.40703 5.625L3.96937 3.75H11.0302L12.5925 5.625H2.40703Z" fill="black"/>
<path d="M28.5938 14.0625H27.6562V8.90625C27.6562 8.64703 27.4463 8.4375 27.1875 8.4375H16.875C16.6163 8.4375 16.4062 8.64703 16.4062 8.90625V14.0625H13.125V13.125H12.1875V14.0625H10.3125V13.125H9.375V14.0625H6.5625V13.5938H7.03125C7.29 13.5938 7.5 13.3842 7.5 13.125V10.7812H7.96875V9.84375H7.03125H2.34375H1.40625V10.7812H1.875V13.125C1.875 13.3842 2.085 13.5938 2.34375 13.5938H2.8125V14.0625H1.40625C1.1475 14.0625 0.9375 14.272 0.9375 14.5312V16.4062V28.5938C0.9375 28.853 1.1475 29.0625 1.40625 29.0625H28.5938C28.8525 29.0625 29.0625 28.853 29.0625 28.5938V16.4062V14.5312C29.0625 14.272 28.8525 14.0625 28.5938 14.0625ZM15 16.875H28.125V19.6875H15V16.875ZM16.875 15H27.1875H28.125V15.9375H15V15H16.875ZM26.7188 14.0625H24.375V9.375H26.7188V14.0625ZM17.3438 9.375H23.4375V14.0625H17.3438V9.375ZM2.8125 10.7812H6.5625V12.6562H2.8125V10.7812ZM3.75 13.5938H5.625V14.0625H3.75V13.5938ZM1.875 15H14.0625V15.9375H1.875V15ZM1.875 16.875H14.0625V28.125H1.875V16.875ZM15 28.125V20.625H28.125V28.125H15Z" fill="black"/>
<path d="M24.8438 10.3125H25.7812V11.25H24.8438V10.3125Z" fill="black"/>
<path d="M24.8438 12.1875H25.7812V13.125H24.8438V12.1875Z" fill="black"/>
<path d="M22.5 9.84375H18.2812C18.0225 9.84375 17.8125 10.0533 17.8125 10.3125V13.125C17.8125 13.3842 18.0225 13.5938 18.2812 13.5938H22.5C22.7587 13.5938 22.9688 13.3842 22.9688 13.125V10.3125C22.9688 10.0533 22.7587 9.84375 22.5 9.84375ZM22.0312 12.6562H18.75V10.7812H22.0312V12.6562Z" fill="black"/>
<path d="M15.9375 7.5H28.125C28.3837 7.5 28.5938 7.29047 28.5938 7.03125V1.40625C28.5938 1.14703 28.3837 0.9375 28.125 0.9375H15.9375C15.6788 0.9375 15.4688 1.14703 15.4688 1.40625V7.03125C15.4688 7.29047 15.6788 7.5 15.9375 7.5ZM19.2188 5.15625V6.5625H18.2812V5.15625H19.2188ZM22.9688 6.5625H22.0312V3.75H22.9688V6.5625ZM25.7812 4.6875C26.0395 4.6875 26.25 4.8975 26.25 5.15625V6.5625H25.3125V5.15625C25.3125 4.8975 25.523 4.6875 25.7812 4.6875ZM16.4062 1.875H27.6562V6.5625H27.1875V5.15625C27.1875 4.54594 26.7942 4.03031 26.25 3.83625V3.28125H25.3125V3.83625C24.7683 4.03031 24.375 4.54594 24.375 5.15625V6.5625H23.9062V3.28125C23.9062 3.02203 23.6962 2.8125 23.4375 2.8125H21.5625C21.3038 2.8125 21.0938 3.02203 21.0938 3.28125V6.5625H20.1562V5.15625H20.625V4.21875H19.2188V3.28125H18.2812V4.21875H16.875V5.15625H17.3438V6.5625H16.4062V1.875Z" fill="black"/>
<path d="M4.21875 4.21875H5.15625V5.15625H4.21875V4.21875Z" fill="black"/>
<path d="M6.09375 4.21875H7.03125V5.15625H6.09375V4.21875Z" fill="black"/>
<path d="M12.6562 19.6875H3.28125C3.0225 19.6875 2.8125 19.897 2.8125 20.1562V26.7188C2.8125 26.978 3.0225 27.1875 3.28125 27.1875H12.6562C12.915 27.1875 13.125 26.978 13.125 26.7188V20.1562C13.125 19.897 12.915 19.6875 12.6562 19.6875ZM12.1875 26.25H3.75V20.625H12.1875V26.25Z" fill="black"/>
<path d="M4.6875 17.8125H11.7188V18.75H4.6875V17.8125Z" fill="black"/>
<path d="M4.82166 24.5104L7.63364 21.6984L8.29645 22.3612L5.48447 25.1732L4.82166 24.5104Z" fill="black"/>
<path d="M7.16541 24.5108L9.97739 21.6989L10.6402 22.3617L7.82822 25.1736L7.16541 24.5108Z" fill="black"/>
<path d="M20.625 17.8125H22.5V18.75H20.625V17.8125Z" fill="black"/>
<path d="M20.625 21.5625H22.5V22.5H20.625V21.5625Z" fill="black"/>
</svg>
