<svg width="12" height="17" viewBox="0 0 12 17" fill="none" xmlns="http://www.w3.org/2000/svg">
<path d="M5.99632 0C2.69011 0 0 2.69011 0 5.99665C0 6.85912 0.176529 7.68259 0.524419 8.44438C2.02366 11.7251 4.89814 15.1888 5.74361 16.1721C5.80695 16.2457 5.8993 16.288 5.99648 16.288C6.09367 16.288 6.18601 16.2457 6.24936 16.1721C7.0945 15.189 9.96897 11.7254 11.4687 8.44438C11.8168 7.68259 11.9931 6.85912 11.9931 5.99665C11.9928 2.69011 9.30269 0 5.99632 0ZM5.99632 9.11133C4.27887 9.11133 2.88147 7.71393 2.88147 5.99648C2.88147 4.27887 4.27887 2.88147 5.99632 2.88147C7.71376 2.88147 9.11116 4.27887 9.11116 5.99648C9.11133 7.71393 7.71393 9.11133 5.99632 9.11133Z" fill="url(#paint0_linear)"/>
<defs>
<linearGradient id="paint0_linear" x1="5.99657" y1="0" x2="5.99657" y2="16.288" gradientUnits="userSpaceOnUse">
<stop stop-color="#F7C340"/>
<stop offset="1" stop-color="#EFB111"/>
</linearGradient>
</defs>
</svg>
