<svg width="50" height="50" viewBox="0 0 50 50" fill="none" xmlns="http://www.w3.org/2000/svg">
<path d="M15.8722 6.49089C13.0325 6.49089 10.8012 8.11361 10.8012 10.142C10.8012 12.1704 13.0325 13.7931 15.8722 13.7931C18.712 13.7931 20.9432 12.1704 20.9432 10.142C20.9432 8.11361 18.712 6.49089 15.8722 6.49089ZM15.8722 11.7647C14.1481 11.7647 12.8296 10.8519 12.8296 10.142C12.8296 9.33065 14.1481 8.51929 15.8722 8.51929C17.5964 8.51929 18.9148 9.43207 18.9148 10.142C18.9148 10.9534 17.5964 11.7647 15.8722 11.7647Z" fill="url(#paint0_linear)"/>
<path d="M44.067 18.2556H30.8824V10.142C30.8824 4.56389 24.1887 0 15.8722 0C7.55579 0 0.862076 4.56389 0.862076 10.142V30.8316C0.862076 35.3955 5.42597 39.4523 11.9168 40.6694V48.9858C11.9168 49.5943 12.3225 50 12.931 50H44.067C46.9067 50 49.1379 47.7688 49.1379 44.929V23.3266C49.1379 20.4868 46.9067 18.2556 44.067 18.2556ZM15.8722 2.0284C23.073 2.0284 28.854 5.67951 28.854 10.142C28.854 14.6045 23.073 18.2556 15.8722 18.2556C8.67141 18.2556 2.89047 14.6045 2.89047 10.142C2.89047 5.67951 8.67141 2.0284 15.8722 2.0284ZM28.854 15.213V18.2556H24.7972C26.4199 17.4442 27.8398 16.43 28.854 15.213ZM11.9168 27.3834V38.5396C6.64301 37.4239 2.89047 34.3813 2.89047 30.8316V15.213C5.52739 18.2556 10.2941 20.284 15.8722 20.284H44.067C45.7911 20.284 47.1095 21.6024 47.1095 23.3266C47.1095 25.0507 45.7911 26.3692 44.067 26.3692H12.931C12.3225 26.3692 11.9168 26.7748 11.9168 27.3834ZM47.3124 44.8276H47.1095C47.1095 46.5517 45.7911 47.8702 44.067 47.8702H42.8499V43.2049C42.8499 42.5963 42.4442 42.1907 41.8357 42.1907C41.2272 42.1907 40.8215 42.5963 40.8215 43.2049V47.8702H37.069V43.2049C37.069 42.5963 36.6633 42.1907 36.0548 42.1907C35.4463 42.1907 35.0406 42.5963 35.0406 43.2049V47.8702H31.288V43.2049C31.288 42.5963 30.8824 42.1907 30.2738 42.1907C29.6653 42.1907 29.2596 42.5963 29.2596 43.2049V47.8702H25.5071V43.2049C25.5071 42.5963 25.1014 42.1907 24.4929 42.1907C23.8844 42.1907 23.4787 42.5963 23.4787 43.2049V47.8702H19.7262V43.2049C19.7262 42.5963 19.3205 42.1907 18.712 42.1907C18.1035 42.1907 17.6978 42.5963 17.6978 43.2049V47.8702H14.1481V40.0609C14.1481 39.9594 14.2495 39.858 14.2495 39.858C14.2495 39.6552 14.2495 39.5538 14.1481 39.3509V28.3976H44.2698C45.3854 28.3976 46.501 27.9919 47.3124 27.3834V44.8276Z" fill="url(#paint1_linear)"/>
<defs>
<linearGradient id="paint0_linear" x1="15.8722" y1="6.49089" x2="15.8722" y2="13.7931" gradientUnits="userSpaceOnUse">
<stop stop-color="#F7C340"/>
<stop offset="1" stop-color="#EFB111"/>
</linearGradient>
<linearGradient id="paint1_linear" x1="25" y1="0" x2="25" y2="50" gradientUnits="userSpaceOnUse">
<stop stop-color="#F7C340"/>
<stop offset="1" stop-color="#EFB111"/>
</linearGradient>
</defs>
</svg>
