<svg width="16" height="17" viewBox="0 0 16 17" fill="none" xmlns="http://www.w3.org/2000/svg">
<path d="M15.9924 12.9152C16.0263 13.1751 15.9471 13.4011 15.7552 13.5931L13.5025 15.8303C13.4008 15.9433 13.2682 16.0395 13.1045 16.1185C12.9407 16.1976 12.7798 16.2485 12.6218 16.271C12.6105 16.271 12.5766 16.2739 12.5201 16.2796C12.4637 16.2852 12.3903 16.2881 12.3 16.2881C12.0853 16.2881 11.7381 16.2514 11.2582 16.1779C10.7783 16.1044 10.1911 15.9236 9.4967 15.6355C8.80213 15.3474 8.01454 14.9151 7.13378 14.3389C6.25303 13.7627 5.31576 12.9717 4.32206 11.966C3.53162 11.1864 2.87668 10.4406 2.35724 9.72878C1.83781 9.01688 1.42 8.35869 1.10383 7.75417C0.787621 7.14966 0.550488 6.60163 0.392399 6.11011C0.23431 5.61859 0.127036 5.19486 0.0705753 4.83893C0.0141151 4.48299 -0.00846904 4.20333 0.00282301 3.99994C0.0141151 3.79655 0.0197611 3.68356 0.0197611 3.66096C0.0423452 3.50277 0.0931595 3.34175 0.172204 3.17791C0.251248 3.01407 0.347231 2.8813 0.460151 2.77961L2.71292 0.525374C2.87101 0.367182 3.05168 0.288086 3.25493 0.288086C3.40173 0.288086 3.53159 0.330459 3.64451 0.415204C3.75743 0.49995 3.85341 0.60447 3.93246 0.728763L5.74483 4.16944C5.84646 4.35023 5.87469 4.54797 5.82952 4.76265C5.78436 4.97734 5.68837 5.15813 5.54158 5.30503L4.71161 6.13553C4.68903 6.15813 4.66926 6.19486 4.65233 6.2457C4.63539 6.29655 4.62692 6.33892 4.62692 6.37282C4.67209 6.61011 4.77372 6.8813 4.93181 7.18638C5.06731 7.45757 5.27621 7.78807 5.55851 8.1779C5.84082 8.56773 6.24168 9.01686 6.76112 9.52533C7.26926 10.0452 7.72094 10.4491 8.11616 10.7372C8.5113 11.0253 8.84171 11.2372 9.10707 11.3728C9.37243 11.5084 9.57569 11.5903 9.71681 11.6185L9.92848 11.6609C9.95107 11.6609 9.98785 11.6524 10.0386 11.6355C10.0894 11.6185 10.1261 11.5987 10.1487 11.5761L11.1142 10.5931C11.3175 10.4123 11.5546 10.3219 11.8256 10.3219C12.0176 10.3219 12.17 10.3558 12.2829 10.4236H12.2998L15.5688 12.3558C15.8061 12.5028 15.9472 12.6892 15.9924 12.9152Z" fill="url(#paint0_linear)"/>
<defs>
<linearGradient id="paint0_linear" x1="8" y1="0.288086" x2="8" y2="16.2881" gradientUnits="userSpaceOnUse">
<stop stop-color="#F7C340"/>
<stop offset="1" stop-color="#EFB111"/>
</linearGradient>
</defs>
</svg>
