<svg width="30" height="30" viewBox="0 0 30 30" fill="none" xmlns="http://www.w3.org/2000/svg">
<path d="M27.3553 22.1936H26.2228C25.9801 22.1936 25.7834 22.3903 25.7834 22.6331C25.7834 22.8758 25.9801 23.0725 26.2228 23.0725H27.3553C27.598 23.0725 27.7947 22.8758 27.7947 22.6331C27.7947 22.3903 27.598 22.1936 27.3553 22.1936Z" fill="black"/>
<path d="M29.3742 20.6697V19.223C29.3742 18.8191 29.0456 18.4906 28.6417 18.4906H24.9364C24.5326 18.4906 24.204 18.8191 24.204 19.223C24.204 19.223 24.2022 19.9322 24.204 19.9532C24.0368 19.6056 23.6851 19.3645 23.2744 19.3645H22.2238V16.2954C22.2238 15.73 21.7638 15.27 21.1984 15.27H7.11233C6.54696 15.27 6.08694 15.73 6.08694 16.2954V19.3645H5.03636C4.46542 19.3645 4.00089 19.8292 4.00089 20.4003V24.7073H3.25986V14.2587H4.90839C5.31227 14.2587 5.64081 13.9302 5.64081 13.5263V11.8359C5.64081 11.5931 5.44411 11.3964 5.20136 11.3964C4.9586 11.3964 4.7619 11.5931 4.7619 11.8359V13.3798H0.878905V8.35437H4.7619V9.66792C4.7619 9.91067 4.9586 10.1074 5.20136 10.1074C5.44411 10.1074 5.64081 9.91067 5.64081 9.66792V8.20788C5.64081 7.804 5.31227 7.47546 4.90839 7.47546H0.732421C0.328535 7.47546 0 7.804 0 8.20788V13.5263C0 13.9302 0.328535 14.2587 0.732421 14.2587H2.38095V24.7073H1.1789C0.775018 24.7073 0.446484 25.0358 0.446484 25.4397V26.234C0.446484 26.6379 0.775018 26.9665 1.1789 26.9665L6.76481 26.9622C7.17139 26.9622 7.50227 26.6313 7.50227 26.2245V25.4605H17.2265C17.4693 25.4605 17.666 25.2638 17.666 25.0211C17.666 24.7783 17.4693 24.5816 17.2265 24.5816H7.50227V22.446H20.8085V24.5816H19.5703C19.3275 24.5816 19.1308 24.7783 19.1308 25.0211C19.1308 25.2638 19.3275 25.4605 19.5703 25.4605H20.8085V26.2245C20.8085 26.6313 21.1393 26.9622 21.5459 26.9622H24.8383C25.2421 26.9622 25.5707 26.6336 25.5707 26.2298V25.4529H28.0075V26.2298C28.0075 26.6336 28.336 26.9622 28.7399 26.9622H29.2676C29.6715 26.9622 30 26.6336 30 26.2298V25.0134V23.7003V21.398C29.9999 21.0292 29.7278 20.7238 29.3742 20.6697ZM4.00089 26.0875H1.32539V25.5861H4.00089V26.0875ZM6.62337 26.0833H4.8798V20.4003C4.8798 20.3153 4.95151 20.2434 5.03636 20.2434H6.46675C6.55165 20.2434 6.62337 20.3153 6.62337 20.4003V26.0833ZM11.6298 21.567H9.29026V19.2501H11.6298V21.567ZM19.2589 21.567H16.9193V19.2501H19.2589V21.567ZM21.3448 19.4932C21.0254 19.6698 20.8084 20.01 20.8084 20.4002V21.5669H20.1378V19.1037C20.1378 18.6998 19.8092 18.3712 19.4053 18.3712H16.7728C16.3689 18.3712 16.0404 18.6998 16.0404 19.1037V21.567H14.5948V19.0429C14.5948 18.8001 14.398 18.6034 14.1553 18.6034C13.9126 18.6034 13.7159 18.8001 13.7159 19.0429V21.567H12.5087V19.1037C12.5087 18.6998 12.1802 18.3712 11.7763 18.3712H9.14377C8.73989 18.3712 8.41135 18.6998 8.41135 19.1037V21.567H7.50221V20.4003C7.50221 20.0101 7.28524 19.6699 6.96579 19.4933V16.2954C6.96579 16.2161 7.03288 16.149 7.11227 16.149H13.7158V17.1093C13.7158 17.3521 13.9125 17.5488 14.1553 17.5488C14.398 17.5488 14.5947 17.3521 14.5947 17.1093V16.1489H21.1984C21.2778 16.1489 21.3448 16.216 21.3448 16.2954V19.4932ZM23.431 26.0833H21.6874V20.4003C21.6874 20.3153 21.7591 20.2434 21.8439 20.2434H23.2744C23.3592 20.2434 23.431 20.3153 23.431 20.4003V26.0833ZM25.0829 19.3695H28.4953V19.6237H25.0829V19.3695ZM25.0829 20.5026H28.4953V20.6603H25.0829V20.5026ZM24.6917 26.0833H24.457V25.4528H24.6917V26.0833ZM29.121 26.0833H28.8863V25.4528H29.121V26.0833ZM29.121 24.574H24.457V24.2098H29.121V24.574ZM29.121 23.3309H24.457V21.5392H29.121V23.3309Z" fill="black"/>
<path d="M20.7397 4.38373H7.57104C7.15743 4.38373 6.82098 4.72029 6.82098 5.13402V12.4064C6.82098 12.8201 7.15743 13.1567 7.57104 13.1567H20.7397C21.1533 13.1567 21.4897 12.8201 21.4897 12.4064V5.13402C21.4897 4.72029 21.1533 4.38373 20.7397 4.38373ZM20.6108 12.2778H7.69989V5.26263H20.6108V12.2778Z" fill="black"/>
<path d="M25.4917 13.6608C24.8447 13.4571 24.7853 13.3968 24.5828 12.7391C24.505 12.4877 24.2764 12.3187 24.0139 12.3187C23.7508 12.3187 23.5221 12.4882 23.4451 12.7398C23.243 13.3967 23.1835 13.457 22.536 13.6608C22.2866 13.7394 22.1191 13.9684 22.1191 14.2306C22.1191 14.4929 22.2866 14.7219 22.536 14.8005C23.1835 15.0045 23.2429 15.0648 23.4448 15.7204C23.5218 15.9729 23.7505 16.1425 24.0139 16.1425C24.2766 16.1425 24.5053 15.9734 24.583 15.7216C24.7853 15.0647 24.8447 15.0044 25.4918 14.8005C25.7412 14.7219 25.9088 14.493 25.9088 14.2306C25.9088 13.9683 25.7412 13.7393 25.4917 13.6608ZM24.0141 14.7868C23.8752 14.5405 23.7053 14.3703 23.4592 14.2308C23.7052 14.0912 23.8752 13.9209 24.0141 13.6746C24.1529 13.9209 24.3229 14.0912 24.5687 14.2308C24.3229 14.3703 24.1529 14.5405 24.0141 14.7868Z" fill="black"/>
<path d="M27.7841 7.21697C27.0528 6.98664 26.9752 6.90806 26.7464 6.16527C26.6665 5.9067 26.4314 5.73291 26.1616 5.73291C25.8909 5.73291 25.6558 5.90728 25.5769 6.16586C25.3486 6.90795 25.2709 6.98658 24.5394 7.21691C24.2829 7.29759 24.1105 7.53308 24.1105 7.80291C24.1105 8.07273 24.2829 8.30828 24.5392 8.3889C25.2709 8.61953 25.3485 8.69804 25.5764 9.43861C25.6555 9.69847 25.8906 9.87302 26.1616 9.87302C26.4317 9.87302 26.6669 9.699 26.7466 9.44007C26.9752 8.69792 27.0528 8.61935 27.7839 8.38896C28.0405 8.30828 28.2128 8.07279 28.2128 7.80291C28.2128 7.53308 28.0405 7.29765 27.7841 7.21697ZM26.1618 8.51517C25.9924 8.18248 25.7837 7.97353 25.4515 7.80296C25.7836 7.63257 25.9923 7.42345 26.1618 7.0907C26.3312 7.42351 26.5398 7.63252 26.872 7.80296C26.5399 7.97347 26.3312 8.18253 26.1618 8.51517Z" fill="black"/>
<path d="M5.75729 4.14755C5.24729 3.98694 5.21442 3.9536 5.05469 3.43458C4.98045 3.19464 4.76219 3.03345 4.5117 3.03345C4.26051 3.03345 4.04213 3.19511 3.96848 3.43534C3.80905 3.95348 3.77624 3.98671 3.26624 4.14731C3.028 4.22219 2.86786 4.44075 2.86786 4.69118C2.86786 4.94178 3.028 5.16034 3.26589 5.23516C3.77618 5.39594 3.80899 5.42922 3.96825 5.94666C4.04196 6.18742 4.26034 6.34926 4.51165 6.34926C4.76225 6.34926 4.98057 6.18795 5.05493 5.94737C5.21453 5.42911 5.24729 5.39588 5.75688 5.23528C5.99518 5.16051 6.15531 4.94184 6.15531 4.6913C6.15531 4.44081 5.99524 4.22225 5.75729 4.14755ZM4.51176 5.00917C4.42452 4.88131 4.32233 4.77901 4.19459 4.69147C4.32239 4.60387 4.42452 4.50157 4.51176 4.37372C4.59901 4.50157 4.70114 4.60387 4.82887 4.69141C4.70114 4.77889 4.59895 4.88126 4.51176 5.00917Z" fill="black"/>
<path d="M19.808 5.62701H8.50275C8.25999 5.62701 8.06329 5.82371 8.06329 6.06647V11.474C8.06329 11.7168 8.25999 11.9135 8.50275 11.9135H19.8079C20.0507 11.9135 20.2474 11.7168 20.2474 11.474V6.06647C20.2474 5.82371 20.0507 5.62701 19.808 5.62701ZM9.61028 11.0346L10.8381 9.15699L12.0659 11.0346H9.61028ZM13.1161 11.0345L12.6017 10.248L14.1342 7.90449L16.181 11.0345H13.1161ZM14.5981 7.00813C14.4918 6.84559 14.3184 6.74856 14.1342 6.74856C13.95 6.74856 13.7765 6.84553 13.6702 7.00818L12.0766 9.44509L11.302 8.26056C11.1957 8.09803 11.0223 8.00094 10.8381 8.00094C10.6538 8.00094 10.4804 8.09797 10.3741 8.26062L8.94214 10.4503V6.50592H19.3684V10.4502L17.9756 8.32033C17.8693 8.15767 17.6959 8.06053 17.5115 8.06053C17.3272 8.06053 17.1537 8.15762 17.0475 8.32021L16.2519 9.53709L14.5981 7.00813ZM17.2311 11.0344V11.0345L16.7769 10.3399L17.5115 9.21652L18.7004 11.0344H17.2311Z" fill="black"/>
</svg>
