<svg width="16" height="14" viewBox="0 0 16 14" fill="none" xmlns="http://www.w3.org/2000/svg">
<path fill-rule="evenodd" clip-rule="evenodd" d="M11.6008 13.4188C12.5098 13.8165 12.8506 12.9833 12.8506 12.9833L15.2556 0.901571C15.2367 0.0872881 14.1383 0.579645 14.1383 0.579645L0.67427 5.86301C0.67427 5.86301 0.0304187 6.09026 0.0872291 6.48793C0.14404 6.8856 0.655333 7.07497 0.655333 7.07497L4.04502 8.21118C4.04502 8.21118 5.06761 11.563 5.27591 12.2068C5.46528 12.8318 5.63571 12.8507 5.63571 12.8507C5.82508 12.9264 5.99551 12.7939 5.99551 12.7939L8.19218 10.8055L11.6008 13.4188ZM12.1878 3.0414C12.1878 3.0414 12.6613 2.75734 12.6423 3.0414C12.6423 3.0414 12.7181 3.07927 12.4719 3.34439C12.2447 3.57163 6.88554 8.38158 6.16594 9.02543C6.10913 9.0633 6.07126 9.12011 6.07126 9.19586L5.86295 10.9759C5.82508 11.1653 5.5789 11.1842 5.52209 11.0138L4.63206 8.09752C4.59419 7.9839 4.63206 7.85135 4.74568 7.7756L12.1878 3.0414Z" fill="white"/>
</svg>
