<svg width="30" height="28" viewBox="0 0 30 28" fill="none" xmlns="http://www.w3.org/2000/svg">
<path d="M23.0261 23.4419C22.7832 23.4419 22.5863 23.6388 22.5863 23.8817C22.5863 24.1246 22.7832 24.3215 23.0261 24.3215H24.4921C24.735 24.3215 24.9319 24.1246 24.9319 23.8817C24.9319 23.6388 24.735 23.4419 24.4921 23.4419H23.0261Z" fill="black"/>
<path d="M23.0261 17.9004H24.4921C24.735 17.9004 24.9319 17.7035 24.9319 17.4606C24.9319 17.2177 24.735 17.0208 24.4921 17.0208H23.0261C22.7832 17.0208 22.5863 17.2176 22.5863 17.4606C22.5864 17.7035 22.7832 17.9004 23.0261 17.9004Z" fill="black"/>
<path d="M28.9114 0.43927H17.1258C16.5255 0.43927 16.0372 0.927591 16.0372 1.52788V3.6481C16.0372 3.89097 16.2341 4.0879 16.477 4.0879C16.72 4.0879 16.9168 3.89103 16.9168 3.6481V1.52788C16.9168 1.41263 17.0106 1.31882 17.1259 1.31882H28.9114C29.0266 1.31882 29.1204 1.41257 29.1204 1.52788V7.61372H16.9168V5.70409C16.9168 5.46122 16.7199 5.26429 16.477 5.26429C16.234 5.26429 16.0372 5.46116 16.0372 5.70409V9.23384C16.0372 9.83413 16.5255 10.3225 17.1258 10.3225H21.1191L20.8154 11.7332H15.4744C15.4267 11.0017 15.1296 10.2976 14.6255 9.74894C14.006 9.07464 13.1596 8.70327 12.2424 8.70327H7.98135C7.06412 8.70327 6.21779 9.07464 5.59828 9.74894C5.09426 10.2976 4.79701 11.0017 4.74937 11.7332H0.917285C0.411504 11.7332 0 12.1447 0 12.6505V13.744C0 14.2498 0.411504 14.6613 0.917285 14.6613H1.48354V26.6808C1.48354 27.1659 1.87822 27.5606 2.36326 27.5606H3.29045C3.77555 27.5606 4.17018 27.1659 4.17018 26.6808V14.6613H5.27385L5.8534 17.2296C6.0784 18.2266 6.94934 18.9229 7.97139 18.9229H8.50764L8.59078 19.6127H7.18811C6.19207 19.6127 5.38172 20.423 5.38172 21.4191C5.38172 22.0068 5.85984 22.4849 6.44754 22.4849H9.69158V25.4312H8.75121C7.74984 25.4312 6.85113 26.0272 6.46172 26.9497C6.36721 27.1734 6.47203 27.4314 6.6958 27.5259C6.91875 27.6201 7.17721 27.5163 7.27201 27.2918C7.52361 26.6958 8.10428 26.3108 8.75127 26.3108H11.5301C12.1771 26.3108 12.7577 26.6958 13.0094 27.2918C13.104 27.5156 13.3618 27.6203 13.5857 27.5259C13.8094 27.4314 13.9142 27.1734 13.8197 26.9496C13.4301 26.0272 12.5315 25.4311 11.5302 25.4311H10.5712V22.4849H13.7762C14.3639 22.4849 14.8421 22.0068 14.8421 21.4191C14.8421 20.4231 14.0317 19.6127 13.0357 19.6127H11.633L11.7161 18.923H12.2524C13.2745 18.923 14.1454 18.2267 14.3704 17.2297L14.9499 14.6613H19.0662V26.6067C19.0662 27.1327 19.4941 27.5606 20.0201 27.5606H27.498C28.024 27.5606 28.452 27.1327 28.452 26.6067V24.9073C28.452 24.6644 28.2551 24.4675 28.0121 24.4675C27.7692 24.4675 27.5723 24.6644 27.5723 24.9073V26.6067C27.5723 26.6477 27.539 26.6811 27.498 26.6811H20.0202C19.9792 26.6811 19.9458 26.6477 19.9458 26.6067V21.0824H27.5724V22.8543C27.5724 23.0972 27.7693 23.2941 28.0122 23.2941C28.2551 23.2941 28.452 23.0972 28.452 22.8543V14.6613H29.06C29.5659 14.6613 29.9773 14.2498 29.9773 13.744V12.6505C29.9773 12.1447 29.5658 11.7332 29.06 11.7332H25.2218L24.9181 10.3225H28.9114C29.5117 10.3225 30 9.83413 30 9.2339V1.52788C30 0.927591 29.5117 0.43927 28.9114 0.43927ZM3.29051 26.681L2.36309 26.6808V14.6613H3.29063L3.29051 26.681ZM0.917285 13.7817C0.896484 13.7817 0.879551 13.7648 0.879551 13.744V12.6505C0.879551 12.6297 0.896484 12.6128 0.917285 12.6128H4.81248C4.8327 12.7088 4.95293 13.2377 5.07545 13.7817H0.917285ZM13.9625 21.4191C13.9625 21.5218 13.8789 21.6053 13.7762 21.6053H6.44766C6.34494 21.6053 6.26139 21.5218 6.26139 21.4191C6.26139 20.908 6.67717 20.4922 7.18822 20.4922H13.0357C13.5467 20.4922 13.9625 20.908 13.9625 21.4191ZM10.747 19.6127H9.47684L9.39369 18.9229H10.8301L10.747 19.6127ZM13.5124 17.036C13.3785 17.6291 12.8604 18.0434 12.2524 18.0434H7.97145C7.36342 18.0434 6.84527 17.6292 6.71145 17.036L5.67938 12.4622C5.50348 11.6834 5.73732 10.8977 6.24598 10.3441C6.69697 9.85324 7.31326 9.58288 7.98135 9.58288H12.2424C12.9105 9.58288 13.5268 9.85324 13.9778 10.3441C14.5078 10.921 14.7132 11.7141 14.5444 12.4622L14.1675 14.1323C14.1674 14.1326 14.1673 14.1329 14.1673 14.1332L13.5124 17.036ZM27.5724 20.2028H19.9458V14.6613H27.5724V20.2028ZM29.0978 12.6505V13.744C29.0978 13.7648 29.0808 13.7817 29.06 13.7817H15.1484C15.3055 13.084 15.3872 12.7276 15.4114 12.6128H29.06C29.0808 12.6128 29.0978 12.6297 29.0978 12.6505ZM24.322 11.7332H21.7151L22.0188 10.3225H24.0183L24.322 11.7332ZM28.9114 9.4429C28.5946 9.4429 17.4422 9.4429 17.1259 9.4429C17.0106 9.4429 16.9168 9.3491 16.9168 9.23384V8.49327H29.1204V9.23384C29.1204 9.34915 29.0266 9.4429 28.9114 9.4429Z" fill="black"/>
</svg>
