<svg width="17" height="11" viewBox="0 0 17 11" fill="none" xmlns="http://www.w3.org/2000/svg">
<path fill-rule="evenodd" clip-rule="evenodd" d="M16.61 1.01105C16.7282 0.596396 16.61 0.291626 16.0475 0.291626H14.1877C13.7148 0.291626 13.4969 0.554874 13.3787 0.845244C13.3787 0.845244 12.4328 3.27124 11.093 4.84709C10.6595 5.30327 10.4625 5.44825 10.226 5.44825C10.1078 5.44825 9.9367 5.30327 9.9367 4.88862V1.01105C9.9367 0.513353 9.79947 0.291626 9.40532 0.291626H6.48276C6.18732 0.291626 6.00957 0.52258 6.00957 0.741511C6.00957 1.21335 6.67937 1.32211 6.74845 2.64912V5.53143C6.74845 6.16334 6.64005 6.27797 6.40359 6.27797C5.77311 6.27797 4.23957 3.84094 3.32986 1.05257C3.15158 0.510557 2.97277 0.291626 2.49746 0.291626H0.637649C0.106275 0.291626 0 0.554874 0 0.845244C0 1.36363 0.630608 3.93488 2.93584 7.33544C4.47284 9.65756 6.63792 10.9166 8.60826 10.9166C9.79057 10.9166 9.9367 10.637 9.9367 10.1554V8.40018C9.9367 7.84097 10.0487 7.72941 10.4229 7.72941C10.699 7.72941 11.1717 7.87452 12.2753 8.9942C13.5362 10.3211 13.744 10.9166 14.4534 10.9166H16.3132C16.8446 10.9166 17.1102 10.637 16.9569 10.0852C16.7893 9.53524 16.1872 8.73752 15.3883 7.79162C14.9549 7.2524 14.3046 6.6718 14.1077 6.38157C13.8318 6.0083 13.9106 5.84249 14.1077 5.51088C14.1077 5.51088 16.3735 2.1517 16.61 1.01119V1.01105Z" fill="white"/>
</svg>
