<svg width="30" height="30" viewBox="0 0 30 30" fill="none" xmlns="http://www.w3.org/2000/svg">
<path d="M14 2C13.724 2 13.5 2.224 13.5 2.49998V4.50002C13.5 4.776 13.724 5 14 5C14.276 5 14.5 4.776 14.5 4.50002V2.50004C14.5 2.224 14.276 2 14 2Z" fill="black"/>
<path d="M28 2C27.7241 2 27.5001 2.224 27.5001 2.49998V4.50002C27.5001 4.776 27.7241 5 28 5C28.276 5 28.5 4.776 28.5 4.50002V2.50004C28.5 2.224 28.276 2 28 2Z" fill="black"/>
<path d="M10.5 0H0.499981C0.224004 0 0 0.224004 0 0.49998V29.5C0 29.776 0.224004 30 0.499981 30H10.5C10.776 30 11 29.776 11 29.5V0.49998C11 0.224004 10.776 0 10.5 0ZM10 29H1.00002V1.00002H10V29Z" fill="black"/>
<path d="M29.5 21H10.5C10.224 21 10 21.224 10 21.5V29.5C10 29.7759 10.224 29.9999 10.5 29.9999H29.5C29.776 29.9999 30 29.7759 30 29.5V21.5C30 21.224 29.776 21 29.5 21ZM29 29H11V22H29V29Z" fill="black"/>
<path d="M29.5 0H10.5C10.224 0 10 0.224004 10 0.49998V2.49996C10 2.77594 10.224 2.99994 10.5 2.99994H29.5C29.776 2.99994 30 2.77594 30 2.49996V0.49998C30 0.224004 29.776 0 29.5 0ZM29 1.99998H11V1.00002H29V1.99998Z" fill="black"/>
<path d="M7.99998 14.5H6.49998C6.224 14.5 6 14.724 6 15C6 15.276 6.224 15.5 6.49998 15.5H7.99998C8.27596 15.5 8.49996 15.276 8.49996 15C8.49996 14.724 8.27602 14.5 7.99998 14.5Z" fill="black"/>
<path d="M6.49998 14.5C6.224 14.5 6 14.724 6 15V16.5C6 16.776 6.224 17 6.49998 17C6.77596 17 6.99996 16.776 6.99996 16.5V15C7.00002 14.724 6.77602 14.5 6.49998 14.5Z" fill="black"/>
<path d="M21.5 24.5H18.5C18.224 24.5 18 24.724 18 25C18 25.276 18.224 25.5 18.5 25.5H21.5C21.776 25.5 22 25.276 22 25C22 24.724 21.776 24.5 21.5 24.5Z" fill="black"/>
<path d="M20 24.5C19.724 24.5 19.5 24.724 19.5 25V26C19.5 26.276 19.724 26.5 20 26.5C20.276 26.5 20.5 26.276 20.5 26V25C20.5 24.724 20.276 24.5 20 24.5Z" fill="black"/>
<path d="M17 2C16.724 2 16.5 2.224 16.5 2.49998V5.49998C16.5 5.77596 16.724 5.99996 17 5.99996C17.276 5.99996 17.5 5.77596 17.5 5.49998V2.49998C17.5 2.224 17.276 2 17 2Z" fill="black"/>
<path d="M17 7C14.3085 7 12.5 8.00447 12.5 9.50002V10.5C12.5 10.776 12.724 11 13 11H14V15.5C14 15.7759 14.224 15.9999 14.5 15.9999H19.5C19.776 15.9999 20 15.7759 20 15.5V11H21C21.276 11 21.5 10.776 21.5 10.5V9.49996C21.5 8.00447 19.6915 7 17 7ZM20.5 10H19.5C19.224 10 19 10.224 19 10.5V15H15V10.5C15 10.224 14.776 10 14.5 10H13.5V9.50002C13.5 8.77305 14.7265 8.00002 17 8.00002C19.2735 8.00002 20.5 8.77305 20.5 9.50002V10H20.5Z" fill="black"/>
<path d="M20.5 7C19.8335 7 19.2085 7.06299 18.643 7.18697C18.4135 7.23748 18.25 7.44045 18.25 7.67547C18.25 7.91049 18.4135 8.11346 18.643 8.16396C19.771 8.41094 20.5 8.93547 20.5 9.49996V9.99994H19.5C19.224 9.99994 19 10.2239 19 10.4999V15.4999C19 15.7759 19.224 15.9999 19.5 15.9999H23C23.2759 15.9999 23.4999 15.7759 23.4999 15.4999V10.9999H24.5C24.7759 10.9999 24.9999 10.7759 24.9999 10.4999V9.4999C25 8.00447 23.1915 7 20.5 7ZM24 10H23C22.724 10 22.5 10.224 22.5 10.5V15H20V11H21C21.276 11 21.5 10.776 21.5 10.5V9.49996C21.5 8.92498 21.2225 8.41147 20.716 8.00248C22.851 8.04947 24 8.79596 24 9.49996V10Z" fill="black"/>
<path d="M24 7C23.3335 7 22.7085 7.06299 22.143 7.18697C21.9135 7.23748 21.75 7.44045 21.75 7.67547C21.75 7.91049 21.9135 8.11346 22.143 8.16396C23.271 8.41094 24 8.93547 24 9.49996V9.99994H23C22.724 9.99994 22.5 10.2239 22.5 10.4999V15.4999C22.5 15.7759 22.724 15.9999 23 15.9999H26.5C26.7759 15.9999 26.9999 15.7759 26.9999 15.4999V10.9999H28C28.2759 10.9999 28.4999 10.7759 28.4999 10.4999V9.4999C28.5 8.00447 26.6915 7 24 7ZM27.5 10H26.5C26.224 10 26 10.224 26 10.5V15H23.5V11H24.5C24.776 11 25 10.776 25 10.5V9.49996C25 8.92498 24.7225 8.41147 24.216 8.00248C26.351 8.04947 27.5 8.79596 27.5 9.49996V10V10Z" fill="black"/>
<path d="M17 4.99994C16.724 4.99994 16.5 5.22394 16.5 5.49992C16.5 5.7759 16.724 5.9999 17 5.9999C17.2755 5.9999 17.5 6.22437 17.5 6.49988C17.5 6.77539 17.2755 6.99986 17 6.99986C16.724 6.99986 16.5 7.22387 16.5 7.49984C16.5 7.77582 16.724 7.99982 17 7.99982C17.827 7.99982 18.5 7.32681 18.5 6.49982C18.5 5.67283 17.827 4.99994 17 4.99994Z" fill="black"/>
<path d="M21 2C20.724 2 20.5 2.224 20.5 2.49998V5.49998C20.5 5.77596 20.724 5.99996 21 5.99996C21.276 5.99996 21.5 5.77596 21.5 5.49998V2.49998C21.5 2.224 21.276 2 21 2Z" fill="black"/>
<path d="M21 4.99994C20.724 4.99994 20.5 5.22394 20.5 5.49992C20.5 5.7759 20.724 5.9999 21 5.9999C21.2755 5.9999 21.5 6.22437 21.5 6.49988C21.5 6.77539 21.2755 6.99986 21 6.99986C20.724 6.99986 20.5 7.22387 20.5 7.49984C20.5 7.77582 20.724 7.99982 21 7.99982C21.827 7.99982 22.5 7.32681 22.5 6.49982C22.5 5.67283 21.827 4.99994 21 4.99994Z" fill="black"/>
<path d="M25 2C24.7241 2 24.5001 2.224 24.5001 2.49998V5.49998C24.5001 5.77596 24.7241 5.99996 25 5.99996C25.276 5.99996 25.5 5.77596 25.5 5.49998V2.49998C25.5 2.224 25.276 2 25 2Z" fill="black"/>
<path d="M25 4.99994C24.7241 4.99994 24.5001 5.22394 24.5001 5.49992C24.5001 5.7759 24.7241 5.9999 25 5.9999C25.2755 5.9999 25.5 6.22437 25.5 6.49988C25.5 6.77539 25.2755 6.99986 25 6.99986C24.7241 6.99986 24.5001 7.22387 24.5001 7.49984C24.5001 7.77582 24.7241 7.99982 25 7.99982C25.827 7.99982 26.5 7.32681 26.5 6.49982C26.5 5.67283 25.827 4.99994 25 4.99994Z" fill="black"/>
<path d="M28.5 19H10.5C10.224 19 10 19.224 10 19.5V21.5C10 21.7759 10.224 21.9999 10.5 21.9999H28.5C28.776 21.9999 29 21.7759 29 21.5V19.5C29 19.224 28.776 19 28.5 19ZM28 21H11V20H27.9999V21H28Z" fill="black"/>
<path d="M27.5 23H12.5C12.224 23 12 23.224 12 23.5V27.5C12 27.776 12.224 28 12.5 28H27.5C27.776 28 28 27.776 28 27.5V23.5C28 23.224 27.776 23 27.5 23ZM27 27H13V24H27V27Z" fill="black"/>
</svg>
