<svg width="30" height="30" viewBox="0 0 30 30" fill="none" xmlns="http://www.w3.org/2000/svg">
<g clip-path="url(#clip0)">
<path d="M23.0261 24.4419C22.7832 24.4419 22.5863 24.6388 22.5863 24.8817C22.5863 25.1246 22.7832 25.3215 23.0261 25.3215H24.4921C24.735 25.3215 24.9319 25.1246 24.9319 24.8817C24.9319 24.6388 24.735 24.4419 24.4921 24.4419H23.0261Z" fill="black"/>
<path d="M23.0261 18.9004H24.4921C24.735 18.9004 24.9319 18.7035 24.9319 18.4606C24.9319 18.2177 24.735 18.0208 24.4921 18.0208H23.0261C22.7832 18.0208 22.5863 18.2176 22.5863 18.4606C22.5864 18.7035 22.7832 18.9004 23.0261 18.9004Z" fill="black"/>
<path d="M28.9114 1.43927H17.1258C16.5255 1.43927 16.0372 1.92759 16.0372 2.52788V4.6481C16.0372 4.89097 16.2341 5.0879 16.477 5.0879C16.72 5.0879 16.9168 4.89103 16.9168 4.6481V2.52788C16.9168 2.41263 17.0106 2.31882 17.1259 2.31882H28.9114C29.0266 2.31882 29.1204 2.41257 29.1204 2.52788V8.61372H16.9168V6.70409C16.9168 6.46122 16.7199 6.26429 16.477 6.26429C16.234 6.26429 16.0372 6.46116 16.0372 6.70409V10.2338C16.0372 10.8341 16.5255 11.3225 17.1258 11.3225H21.1191L20.8154 12.7332H15.4744C15.4267 12.0017 15.1296 11.2976 14.6255 10.7489C14.006 10.0746 13.1596 9.70327 12.2424 9.70327H7.98135C7.06412 9.70327 6.21779 10.0746 5.59828 10.7489C5.09426 11.2976 4.79701 12.0017 4.74937 12.7332H0.917285C0.411504 12.7332 0 13.1447 0 13.6505V14.744C0 15.2498 0.411504 15.6613 0.917285 15.6613H1.48354V27.6808C1.48354 28.1659 1.87822 28.5606 2.36326 28.5606H3.29045C3.77555 28.5606 4.17018 28.1659 4.17018 27.6808V15.6613H5.27385L5.8534 18.2296C6.0784 19.2266 6.94934 19.9229 7.97139 19.9229H8.50764L8.59078 20.6127H7.18811C6.19207 20.6127 5.38172 21.423 5.38172 22.4191C5.38172 23.0068 5.85984 23.4849 6.44754 23.4849H9.69158V26.4312H8.75121C7.74984 26.4312 6.85113 27.0272 6.46172 27.9497C6.36721 28.1734 6.47203 28.4314 6.6958 28.5259C6.91875 28.6201 7.17721 28.5163 7.27201 28.2918C7.52361 27.6958 8.10428 27.3108 8.75127 27.3108H11.5301C12.1771 27.3108 12.7577 27.6958 13.0094 28.2918C13.104 28.5156 13.3618 28.6203 13.5857 28.5259C13.8094 28.4314 13.9142 28.1734 13.8197 27.9496C13.4301 27.0272 12.5315 26.4311 11.5302 26.4311H10.5712V23.4849H13.7762C14.3639 23.4849 14.8421 23.0068 14.8421 22.4191C14.8421 21.4231 14.0317 20.6127 13.0357 20.6127H11.633L11.7161 19.923H12.2524C13.2745 19.923 14.1454 19.2267 14.3704 18.2297L14.9499 15.6613H19.0662V27.6067C19.0662 28.1327 19.4941 28.5606 20.0201 28.5606H27.498C28.024 28.5606 28.452 28.1327 28.452 27.6067V25.9073C28.452 25.6644 28.2551 25.4675 28.0121 25.4675C27.7692 25.4675 27.5723 25.6644 27.5723 25.9073V27.6067C27.5723 27.6477 27.539 27.6811 27.498 27.6811H20.0202C19.9792 27.6811 19.9458 27.6477 19.9458 27.6067V22.0824H27.5724V23.8543C27.5724 24.0972 27.7693 24.2941 28.0122 24.2941C28.2551 24.2941 28.452 24.0972 28.452 23.8543V15.6613H29.06C29.5659 15.6613 29.9773 15.2498 29.9773 14.744V13.6505C29.9773 13.1447 29.5658 12.7332 29.06 12.7332H25.2218L24.9181 11.3225H28.9114C29.5117 11.3225 30 10.8341 30 10.2339V2.52788C30 1.92759 29.5117 1.43927 28.9114 1.43927ZM3.29051 27.681L2.36309 27.6808V15.6613H3.29063L3.29051 27.681ZM0.917285 14.7817C0.896484 14.7817 0.879551 14.7648 0.879551 14.744V13.6505C0.879551 13.6297 0.896484 13.6128 0.917285 13.6128H4.81248C4.8327 13.7088 4.95293 14.2377 5.07545 14.7817H0.917285ZM13.9625 22.4191C13.9625 22.5218 13.8789 22.6053 13.7762 22.6053H6.44766C6.34494 22.6053 6.26139 22.5218 6.26139 22.4191C6.26139 21.908 6.67717 21.4922 7.18822 21.4922H13.0357C13.5467 21.4922 13.9625 21.908 13.9625 22.4191ZM10.747 20.6127H9.47684L9.39369 19.9229H10.8301L10.747 20.6127ZM13.5124 18.036C13.3785 18.6291 12.8604 19.0434 12.2524 19.0434H7.97145C7.36342 19.0434 6.84527 18.6292 6.71145 18.036L5.67938 13.4622C5.50348 12.6834 5.73732 11.8977 6.24598 11.3441C6.69697 10.8532 7.31326 10.5829 7.98135 10.5829H12.2424C12.9105 10.5829 13.5268 10.8532 13.9778 11.3441C14.5078 11.921 14.7132 12.7141 14.5444 13.4622L14.1675 15.1323C14.1674 15.1326 14.1673 15.1329 14.1673 15.1332L13.5124 18.036ZM27.5724 21.2028H19.9458V15.6613H27.5724V21.2028ZM29.0978 13.6505V14.744C29.0978 14.7648 29.0808 14.7817 29.06 14.7817H15.1484C15.3055 14.084 15.3872 13.7276 15.4114 13.6128H29.06C29.0808 13.6128 29.0978 13.6297 29.0978 13.6505ZM24.322 12.7332H21.7151L22.0188 11.3225H24.0183L24.322 12.7332ZM28.9114 10.4429C28.5946 10.4429 17.4422 10.4429 17.1259 10.4429C17.0106 10.4429 16.9168 10.3491 16.9168 10.2338V9.49327H29.1204V10.2338C29.1204 10.3492 29.0266 10.4429 28.9114 10.4429Z" fill="black"/>
</g>
<defs>
<clipPath id="clip0">
<rect width="30" height="30" fill="white"/>
</clipPath>
</defs>
</svg>
