<svg width="263" height="68" viewBox="0 0 263 68" fill="none" xmlns="http://www.w3.org/2000/svg">
<path d="M106.936 35L105.352 22.304L100.792 31.016L96.136 22.28L94.552 35H92.152L94.408 18.2H96.352L100.768 26.528L105.136 18.2H107.104L109.336 35H106.936ZM114.679 18.2H124.927V20.264H116.959V25.184H123.295V27.248H116.959V32.936H125.143V35H114.679V18.2ZM138.792 25.856C139.848 26.112 140.656 26.608 141.216 27.344C141.776 28.064 142.056 29.016 142.056 30.2C142.056 31.688 141.576 32.864 140.616 33.728C139.672 34.576 138.368 35 136.704 35H130.368V18.2H135.672C137.208 18.2 138.392 18.544 139.224 19.232C140.072 19.92 140.496 20.944 140.496 22.304C140.496 23.104 140.352 23.816 140.064 24.44C139.776 25.064 139.352 25.536 138.792 25.856ZM132.648 25.184H135.384C136.28 25.184 136.96 25.008 137.424 24.656C137.904 24.288 138.144 23.64 138.144 22.712C138.144 21.784 137.904 21.144 137.424 20.792C136.96 20.424 136.28 20.24 135.384 20.24H132.648V25.184ZM136.512 32.936C137.456 32.936 138.2 32.704 138.744 32.24C139.288 31.76 139.56 31.056 139.56 30.128C139.56 28.208 138.544 27.248 136.512 27.248H132.648V32.936H136.512ZM147.089 18.2H157.337V20.264H149.369V25.184H155.705V27.248H149.369V32.936H157.553V35H147.089V18.2ZM162.778 18.2H165.058V32.936H172.762V35H162.778V18.2ZM185.625 25.856C186.681 26.112 187.489 26.608 188.049 27.344C188.609 28.064 188.889 29.016 188.889 30.2C188.889 31.688 188.409 32.864 187.449 33.728C186.505 34.576 185.201 35 183.537 35H177.201V18.2H182.505C184.041 18.2 185.225 18.544 186.057 19.232C186.905 19.92 187.329 20.944 187.329 22.304C187.329 23.104 187.185 23.816 186.897 24.44C186.609 25.064 186.185 25.536 185.625 25.856ZM179.481 25.184H182.217C183.113 25.184 183.793 25.008 184.257 24.656C184.737 24.288 184.977 23.64 184.977 22.712C184.977 21.784 184.737 21.144 184.257 20.792C183.793 20.424 183.113 20.24 182.217 20.24H179.481V25.184ZM183.345 32.936C184.289 32.936 185.033 32.704 185.577 32.24C186.121 31.76 186.393 31.056 186.393 30.128C186.393 28.208 185.377 27.248 183.345 27.248H179.481V32.936H183.345ZM193.922 18.2H199.37C201.194 18.2 202.618 18.624 203.642 19.472C204.666 20.304 205.178 21.584 205.178 23.312C205.178 25.552 204.202 27.128 202.25 28.04L206.018 35H203.234L199.826 28.448H199.706H196.322V35H193.922V18.2ZM199.346 26.408C200.466 26.408 201.322 26.136 201.914 25.592C202.506 25.048 202.802 24.288 202.802 23.312C202.802 22.336 202.506 21.584 201.914 21.056C201.338 20.512 200.482 20.24 199.346 20.24H196.322V26.408H199.346ZM219.471 30.464H213.039L211.431 35H209.031L215.055 18.2H217.455L223.479 35H221.079L219.471 30.464ZM218.751 28.4L216.255 21.392L213.759 28.4H218.751ZM227.972 18.2H230.444L238.724 30.776V18.2H241.028V35H239.084L230.252 21.728V35H227.972V18.2ZM247.27 18.2H253.486C255.118 18.2 256.566 18.536 257.83 19.208C259.094 19.864 260.078 20.832 260.782 22.112C261.486 23.376 261.838 24.872 261.838 26.6C261.838 28.328 261.486 29.832 260.782 31.112C260.078 32.376 259.094 33.344 257.83 34.016C256.566 34.672 255.118 35 253.486 35H247.27V18.2ZM253.486 32.936C255.358 32.936 256.798 32.368 257.806 31.232C258.83 30.08 259.342 28.536 259.342 26.6C259.342 24.664 258.83 23.128 257.806 21.992C256.798 20.84 255.358 20.264 253.486 20.264H249.55V32.936H253.486Z" fill="white"/>
<path d="M95.433 45.905C94.5897 45.905 93.926 46.1873 93.442 46.752C92.958 47.3167 92.716 48.0903 92.716 49.073C92.716 50.0483 92.9397 50.822 93.387 51.394C93.8417 51.9587 94.52 52.241 95.422 52.241C95.7667 52.241 96.093 52.2117 96.401 52.153C96.709 52.0943 97.0097 52.021 97.303 51.933V52.791C97.0097 52.901 96.7053 52.9817 96.39 53.033C96.082 53.0843 95.7117 53.11 95.279 53.11C94.4797 53.11 93.8123 52.945 93.277 52.615C92.7417 52.285 92.3383 51.8157 92.067 51.207C91.803 50.5983 91.671 49.8833 91.671 49.062C91.671 48.27 91.814 47.5733 92.1 46.972C92.3933 46.3633 92.8223 45.8903 93.387 45.553C93.9517 45.2083 94.6373 45.036 95.444 45.036C96.2727 45.036 96.995 45.19 97.611 45.498L97.215 46.334C96.973 46.224 96.7017 46.125 96.401 46.037C96.1077 45.949 95.785 45.905 95.433 45.905ZM107.855 49.062C107.855 49.876 107.716 50.5873 107.437 51.196C107.166 51.7973 106.763 52.2667 106.227 52.604C105.692 52.9413 105.028 53.11 104.236 53.11C103.422 53.11 102.744 52.9413 102.201 52.604C101.666 52.2667 101.266 51.7937 101.002 51.185C100.738 50.5763 100.606 49.865 100.606 49.051C100.606 48.2443 100.738 47.5403 101.002 46.939C101.266 46.3377 101.666 45.8683 102.201 45.531C102.744 45.1937 103.426 45.025 104.247 45.025C105.032 45.025 105.692 45.1937 106.227 45.531C106.763 45.861 107.166 46.3303 107.437 46.939C107.716 47.5403 107.855 48.248 107.855 49.062ZM101.651 49.062C101.651 50.052 101.86 50.833 102.278 51.405C102.696 51.9697 103.349 52.252 104.236 52.252C105.131 52.252 105.784 51.9697 106.194 51.405C106.605 50.833 106.81 50.052 106.81 49.062C106.81 48.072 106.605 47.2983 106.194 46.741C105.784 46.1763 105.135 45.894 104.247 45.894C103.36 45.894 102.704 46.1763 102.278 46.741C101.86 47.2983 101.651 48.072 101.651 49.062ZM111.796 45.146H114.04C115.023 45.146 115.763 45.2927 116.262 45.586C116.768 45.872 117.021 46.3743 117.021 47.093C117.021 47.555 116.893 47.94 116.636 48.248C116.379 48.5487 116.009 48.743 115.525 48.831V48.886C115.855 48.9373 116.152 49.0327 116.416 49.172C116.687 49.3113 116.9 49.5093 117.054 49.766C117.208 50.0227 117.285 50.3563 117.285 50.767C117.285 51.4783 117.039 52.0283 116.548 52.417C116.064 52.8057 115.4 53 114.557 53H111.796V45.146ZM112.786 48.49H114.238C114.913 48.49 115.375 48.3837 115.624 48.171C115.873 47.951 115.998 47.6283 115.998 47.203C115.998 46.7703 115.844 46.4623 115.536 46.279C115.235 46.0883 114.751 45.993 114.084 45.993H112.786V48.49ZM112.786 49.315V52.164H114.37C115.067 52.164 115.551 52.0283 115.822 51.757C116.093 51.4857 116.229 51.13 116.229 50.69C116.229 50.2793 116.086 49.9493 115.8 49.7C115.521 49.4433 115.019 49.315 114.293 49.315H112.786ZM123.229 45.146C124.256 45.146 125.004 45.3477 125.473 45.751C125.943 46.1543 126.177 46.7227 126.177 47.456C126.177 47.8887 126.078 48.2957 125.88 48.677C125.69 49.051 125.363 49.3553 124.901 49.59C124.447 49.8247 123.827 49.942 123.042 49.942H122.14V53H121.15V45.146H123.229ZM123.141 45.993H122.14V49.095H122.932C123.68 49.095 124.238 48.974 124.604 48.732C124.971 48.49 125.154 48.0793 125.154 47.5C125.154 46.994 124.993 46.6163 124.67 46.367C124.348 46.1177 123.838 45.993 123.141 45.993ZM134.4 53H130.011V45.146H134.4V46.015H131.001V48.468H134.202V49.326H131.001V52.131H134.4V53ZM141.788 53L139.203 46.114H139.159C139.181 46.3413 139.199 46.6493 139.214 47.038C139.229 47.4193 139.236 47.819 139.236 48.237V53H138.323V45.146H139.786L142.206 51.581H142.25L144.714 45.146H146.166V53H145.187V48.171C145.187 47.7897 145.194 47.412 145.209 47.038C145.231 46.664 145.249 46.3597 145.264 46.125H145.22L142.602 53H141.788ZM154.891 53H150.502V45.146H154.891V46.015H151.492V48.468H154.693V49.326H151.492V52.131H154.891V53ZM164.821 53H163.831V49.337H159.805V53H158.815V45.146H159.805V48.468H163.831V45.146H164.821V53ZM175.174 53H174.184V49.337H170.158V53H169.168V45.146H170.158V48.468H174.184V45.146H175.174V53ZM184.449 53L183.503 50.569H180.39L179.455 53H178.454L181.523 45.113H182.414L185.472 53H184.449ZM183.206 49.689L182.326 47.313C182.304 47.2543 182.268 47.148 182.216 46.994C182.165 46.84 182.114 46.6823 182.062 46.521C182.018 46.3523 181.982 46.224 181.952 46.136C181.901 46.3633 181.842 46.587 181.776 46.807C181.71 47.0197 181.655 47.1883 181.611 47.313L180.72 49.689H183.206ZM191.112 49.744L189.077 53H187.922L190.122 49.568C189.843 49.4727 189.579 49.3407 189.33 49.172C189.088 49.0033 188.89 48.7723 188.736 48.479C188.582 48.1857 188.505 47.808 188.505 47.346C188.505 46.6347 188.75 46.092 189.242 45.718C189.733 45.3367 190.466 45.146 191.442 45.146H193.642V53H192.652V49.744H191.112ZM192.652 45.993H191.464C190.84 45.993 190.36 46.103 190.023 46.323C189.693 46.5357 189.528 46.8913 189.528 47.39C189.528 47.874 189.689 48.248 190.012 48.512C190.334 48.776 190.833 48.908 191.508 48.908H192.652V45.993ZM206.108 53L203.523 46.114H203.479C203.501 46.3413 203.519 46.6493 203.534 47.038C203.548 47.4193 203.556 47.819 203.556 48.237V53H202.643V45.146H204.106L206.526 51.581H206.57L209.034 45.146H210.486V53H209.507V48.171C209.507 47.7897 209.514 47.412 209.529 47.038C209.551 46.664 209.569 46.3597 209.584 46.125H209.54L206.922 53H206.108ZM219.211 53H214.822V45.146H219.211V46.015H215.812V48.468H219.013V49.326H215.812V52.131H219.211V53ZM223.135 53V45.146H227.799V46.015H224.125V48.468H225.291C226.075 48.468 226.684 48.567 227.117 48.765C227.549 48.9557 227.85 49.2197 228.019 49.557C228.187 49.887 228.272 50.2683 228.272 50.701C228.272 51.4197 228.055 51.9843 227.623 52.395C227.19 52.7983 226.46 53 225.434 53H223.135ZM224.125 52.153H225.335C226.039 52.153 226.534 52.0357 226.82 51.801C227.106 51.559 227.249 51.1923 227.249 50.701C227.249 50.195 227.091 49.8393 226.776 49.634C226.46 49.4287 225.925 49.326 225.17 49.326H224.125V52.153ZM236.491 53H232.102V45.146H236.491V46.015H233.092V48.468H236.293V49.326H233.092V52.131H236.491V53ZM246.068 53H245.078V46.015H242.592C242.526 46.5577 242.453 47.1297 242.372 47.731C242.292 48.325 242.211 48.8933 242.13 49.436C242.05 49.9787 241.969 50.4407 241.888 50.822C241.793 51.3133 241.676 51.7313 241.536 52.076C241.397 52.4207 241.21 52.681 240.975 52.857C240.748 53.033 240.447 53.121 240.073 53.121C239.949 53.121 239.82 53.1063 239.688 53.077C239.564 53.055 239.454 53.0257 239.358 52.989V52.164C239.439 52.2007 239.531 52.2337 239.633 52.263C239.736 52.285 239.846 52.296 239.963 52.296C240.183 52.296 240.356 52.208 240.48 52.032C240.612 51.8487 240.715 51.625 240.788 51.361C240.862 51.0897 240.924 50.822 240.975 50.558C241.034 50.2793 241.104 49.8723 241.184 49.337C241.272 48.7943 241.364 48.1637 241.459 47.445C241.562 46.7263 241.665 45.96 241.767 45.146H246.068V53ZM250.403 53V45.146H251.393V48.468H252.867C253.6 48.468 254.183 48.567 254.616 48.765C255.048 48.963 255.36 49.2307 255.551 49.568C255.741 49.9053 255.837 50.283 255.837 50.701C255.837 51.3903 255.602 51.9477 255.133 52.373C254.663 52.791 253.948 53 252.988 53H250.403ZM251.393 52.153H252.889C254.172 52.153 254.814 51.669 254.814 50.701C254.814 50.195 254.638 49.8393 254.286 49.634C253.934 49.4287 253.42 49.326 252.746 49.326H251.393V52.153Z" fill="#9C969D"/>
<path d="M56.5943 47.8616H12.2122C11.3787 47.8616 10.7035 47.1864 10.7035 46.3529C10.7035 45.5194 11.3792 44.8442 12.2122 44.8442H56.5943C57.4278 44.8442 58.103 45.5199 58.103 46.3529C58.1035 47.1864 57.4278 47.8616 56.5943 47.8616Z" fill="url(#paint0_linear)"/>
<path d="M12.5538 67.2203C12.1366 67.2203 11.7222 67.0488 11.4236 66.7124C10.8712 66.0882 10.9284 65.1347 11.5526 64.5823L33.4032 45.2232C34.0264 44.6699 34.9804 44.7285 35.5332 45.3522C36.0856 45.9759 36.0284 46.9294 35.4047 47.4817L13.5541 66.8409C13.2663 67.0956 12.9091 67.2203 12.5538 67.2203Z" fill="url(#paint1_linear)"/>
<path d="M56.2531 67.2203C55.8978 67.2203 55.5406 67.0951 55.2533 66.8409L33.4027 47.4818C32.779 46.9294 32.7213 45.9755 33.2742 45.3522C33.826 44.7285 34.7805 44.6704 35.4042 45.2232L57.2544 64.5824C57.8781 65.1347 57.9357 66.0882 57.3829 66.7124C57.0852 67.0488 56.6703 67.2203 56.2531 67.2203Z" fill="url(#paint2_linear)"/>
<path d="M53.3969 36.1153H15.41C14.792 36.1153 14.2364 35.7383 14.0081 35.1642L5.38128 13.4879C5.14078 12.8836 5.31466 12.1928 5.81315 11.7751C6.31069 11.3565 7.02132 11.304 7.57509 11.6456L23.7047 21.5827L33.028 0.889238C33.2719 0.348229 33.81 0 34.404 0C34.9979 0 35.5361 0.348229 35.7799 0.889238L45.1037 21.5827L61.2328 11.6456C61.7875 11.304 62.4972 11.3569 62.9948 11.7751C63.4928 12.1933 63.6667 12.8836 63.4262 13.4879L54.7993 35.1642C54.5706 35.7383 54.0154 36.1153 53.3969 36.1153ZM16.4335 33.0975H52.373L58.9374 16.6036L45.2242 25.0528C44.8547 25.281 44.4053 25.3386 43.99 25.2106C43.5756 25.083 43.2354 24.7834 43.0568 24.3875L34.4035 5.18188L25.7502 24.3875C25.572 24.7834 25.2318 25.083 24.817 25.2106C24.4021 25.3386 23.9528 25.2805 23.5828 25.0528L9.86953 16.6036L16.4335 33.0975Z" fill="url(#paint3_linear)"/>
<path d="M1.50868 51.5654C0.675195 51.5654 0 50.8897 0 50.0567V35.2042C0 34.3708 0.675195 33.6956 1.50868 33.6956C2.34217 33.6956 3.01736 34.3712 3.01736 35.2042V50.0567C3.01736 50.8897 2.34217 51.5654 1.50868 51.5654Z" fill="url(#paint4_linear)"/>
<path d="M68.4913 51.5654C67.6579 51.5654 66.9827 50.8897 66.9827 50.0567V35.2042C66.9827 34.3708 67.6579 33.6956 68.4913 33.6956C69.3248 33.6956 70 34.3712 70 35.2042V50.0567C70.0005 50.8897 69.3248 51.5654 68.4913 51.5654Z" fill="url(#paint5_linear)"/>
<defs>
<linearGradient id="paint0_linear" x1="34.4036" y1="64.9082" x2="34.4036" y2="3.21736" gradientUnits="userSpaceOnUse">
<stop stop-color="#C3855A"/>
<stop offset="1" stop-color="#FFD87B"/>
</linearGradient>
<linearGradient id="paint1_linear" x1="23.4785" y1="64.9085" x2="23.4785" y2="3.21684" gradientUnits="userSpaceOnUse">
<stop stop-color="#C3855A"/>
<stop offset="1" stop-color="#FFD87B"/>
</linearGradient>
<linearGradient id="paint2_linear" x1="45.3286" y1="64.9086" x2="45.3286" y2="3.21733" gradientUnits="userSpaceOnUse">
<stop stop-color="#C3855A"/>
<stop offset="1" stop-color="#FFD87B"/>
</linearGradient>
<linearGradient id="paint3_linear" x1="34.4036" y1="64.9087" x2="34.4036" y2="3.21691" gradientUnits="userSpaceOnUse">
<stop stop-color="#C3855A"/>
<stop offset="1" stop-color="#FFD87B"/>
</linearGradient>
<linearGradient id="paint4_linear" x1="1.50868" y1="64.9082" x2="1.50868" y2="3.21684" gradientUnits="userSpaceOnUse">
<stop stop-color="#C3855A"/>
<stop offset="1" stop-color="#FFD87B"/>
</linearGradient>
<linearGradient id="paint5_linear" x1="68.4914" y1="64.9082" x2="68.4914" y2="3.21684" gradientUnits="userSpaceOnUse">
<stop stop-color="#C3855A"/>
<stop offset="1" stop-color="#FFD87B"/>
</linearGradient>
</defs>
</svg>
